<svg width="600" height="572" version="1.1" xmlns="http://www.w3.org/2000/svg" desc="Created with imagetracer.js version 1.2.6" ><path fill="rgb(242,220,87)" stroke="rgb(242,220,87)" stroke-width="1" opacity="1" d="M 308.5 140 L 307.5 142 L 308.5 140 Z " /><path fill="rgb(242,220,87)" stroke="rgb(242,220,87)" stroke-width="1" opacity="1" d="M 325.5 314 L 329 314.5 L 325.5 315 L 325.5 314 Z " /><path fill="rgb(242,220,87)" stroke="rgb(242,220,87)" stroke-width="1" opacity="1" d="M 304.5 319 L 316.5 319 L 328 325.5 L 331.5 331 L 333 331.5 L 288 332 Q 286.9 329.3 289.5 330 Q 294.8 322.3 304.5 319 Z " /><path fill="rgb(242,220,87)" stroke="rgb(242,220,87)" stroke-width="1" opacity="1" d="M 285.5 333 L 286.5 334 L 334.5 334 L 336 335.5 L 334.5 338 L 333.5 337 L 315.5 337 L 312.5 336 L 310.5 337 L 308.5 337 L 290.5 338 L 284 337 L 285.5 333 Z " /><path fill="rgb(242,220,87)" stroke="rgb(242,220,87)" stroke-width="1" opacity="1" d="M 286 339 L 297.5 340 L 298.5 339 L 334 339 L 334 345.5 L 328 358 L 326 358 Q 327.1 360.7 324.5 360 L 319.5 364 L 311.5 365 L 310 363.5 L 310 354.5 L 315 350.5 L 316 344.5 Q 314.5 339.5 306.5 341 Q 302 342 303 348.5 L 306.5 353 L 308 353.5 L 308 364 Q 295.4 363.5 290 354.5 Q 284.4 349.8 286 339 Z " /><path fill="rgb(242,220,87)" stroke="rgb(242,220,87)" stroke-width="1" opacity="1" d="M 308.5 344 L 312 345.5 Q 312.8 349.3 310.5 350 Q 306.5 350.5 306 347.5 L 308.5 344 Z " /><path fill="rgb(186,215,221)" stroke="rgb(186,215,221)" stroke-width="1" opacity="1" d="M 296.5 64 L 302 64.5 L 296.5 65 L 296.5 64 Z " /><path fill="rgb(186,215,221)" stroke="rgb(186,215,221)" stroke-width="1" opacity="1" d="M 318.5 64 L 323 64.5 L 318.5 65 L 318.5 64 Z " /><path fill="rgb(186,215,221)" stroke="rgb(186,215,221)" stroke-width="1" opacity="1" d="M 287.5 65 L 290 65.5 L 287.5 66 L 287.5 65 Z " /><path fill="rgb(186,215,221)" stroke="rgb(186,215,221)" stroke-width="1" opacity="1" d="M 329.5 65 L 332 65.5 L 329.5 66 L 329.5 65 Z " /><path fill="rgb(186,215,221)" stroke="rgb(186,215,221)" stroke-width="1" opacity="1" d="M 263.5 78 L 261.5 81 L 263.5 78 Z " /><path fill="rgb(186,215,221)" stroke="rgb(186,215,221)" stroke-width="1" opacity="1" d="M 254.5 95 L 255 99.5 L 254 99.5 L 254.5 95 Z " /><path fill="rgb(186,215,221)" stroke="rgb(186,215,221)" stroke-width="1" opacity="1" d="M 292.5 95 L 296 95.5 L 292.5 96 L 292.5 95 Z " /><path fill="rgb(186,215,221)" stroke="rgb(186,215,221)" stroke-width="1" opacity="1" d="M 310.5 96 L 311 107.5 L 310 107.5 L 310.5 96 Z " /><path fill="rgb(186,215,221)" stroke="rgb(186,215,221)" stroke-width="1" opacity="1" d="M 406.5 96 L 407.5 98 L 406.5 96 Z " /><path fill="rgb(186,215,221)" stroke="rgb(186,215,221)" stroke-width="1" opacity="1" d="M 212.5 97 L 211.5 99 L 212.5 97 Z " /><path fill="rgb(186,215,221)" stroke="rgb(186,215,221)" stroke-width="1" opacity="1" d="M 321.5 97 L 320.5 99 L 321.5 97 Z " /><path fill="rgb(186,215,221)" stroke="rgb(186,215,221)" stroke-width="1" opacity="1" d="M 308.5 98 L 309 100.5 L 308 100.5 L 308.5 98 Z " /><path fill="rgb(186,215,221)" stroke="rgb(186,215,221)" stroke-width="1" opacity="1" d="M 254.5 106 L 255 109.5 L 254 109.5 L 254.5 106 Z " /><path fill="rgb(186,215,221)" stroke="rgb(186,215,221)" stroke-width="1" opacity="1" d="M 324.5 106 L 323.5 108 L 324.5 106 Z " /><path fill="rgb(186,215,221)" stroke="rgb(186,215,221)" stroke-width="1" opacity="1" d="M 419.5 109 L 420.5 111 L 419.5 109 Z " /><path fill="rgb(186,215,221)" stroke="rgb(186,215,221)" stroke-width="1" opacity="1" d="M 197.5 112 L 196.5 114 L 197.5 112 Z " /><path fill="rgb(186,215,221)" stroke="rgb(186,215,221)" stroke-width="1" opacity="1" d="M 311.5 113 Q 312.4 121.1 317 125.5 L 313.5 126 L 314 124.5 L 311 115 Q 308.3 113.9 309 116.5 L 306 124 L 311 124.5 L 301.5 126 L 301.5 125 L 305 122.5 L 307 115 L 311.5 113 Z " /><path fill="rgb(186,215,221)" stroke="rgb(186,215,221)" stroke-width="1" opacity="1" d="M 423.5 114 L 424.5 116 L 423.5 114 Z " /><path fill="rgb(186,215,221)" stroke="rgb(186,215,221)" stroke-width="1" opacity="1" d="M 330.5 115 L 329.5 117 L 330.5 115 Z " /><path fill="rgb(186,215,221)" stroke="rgb(186,215,221)" stroke-width="1" opacity="1" d="M 293.5 116 L 297 116.5 L 293.5 117 L 293.5 116 Z " /><path fill="rgb(186,215,221)" stroke="rgb(186,215,221)" stroke-width="1" opacity="1" d="M 255.5 117 L 260 124.5 L 258.5 125 Q 255 122 255.5 117 Z " /><path fill="rgb(186,215,221)" stroke="rgb(186,215,221)" stroke-width="1" opacity="1" d="M 362 118 L 364 118.5 L 363 121 L 361 120.5 L 362 118 Z " /><path fill="rgb(186,215,221)" stroke="rgb(186,215,221)" stroke-width="1" opacity="1" d="M 358.5 125 L 360 125.5 L 354 130.5 L 358.5 125 Z " /><path fill="rgb(186,215,221)" stroke="rgb(186,215,221)" stroke-width="1" opacity="1" d="M 259.5 126 Q 266.9 136.6 286.5 135 L 292.5 132 L 291 134.5 L 290.5 136 L 288.5 136 Q 282.3 134.3 280.5 137 L 269.5 135 L 263 130.5 L 261.5 128 L 259.5 126 Z " /><path fill="rgb(186,215,221)" stroke="rgb(186,215,221)" stroke-width="1" opacity="1" d="M 352.5 130 L 353 132 Q 345.8 136.5 332.5 136 L 324 134 Q 322.9 131.3 325.5 132 L 329.5 134 L 344.5 134 L 352.5 130 Z " /><path fill="rgb(186,215,221)" stroke="rgb(186,215,221)" stroke-width="1" opacity="1" d="M 212.5 132 L 211.5 134 L 212.5 132 Z " /><path fill="rgb(186,215,221)" stroke="rgb(186,215,221)" stroke-width="1" opacity="1" d="M 404.5 133 L 405.5 135 L 404.5 133 Z " /><path fill="rgb(186,215,221)" stroke="rgb(186,215,221)" stroke-width="1" opacity="1" d="M 326.5 137 L 327 139.5 L 326 139.5 L 326.5 137 Z " /><path fill="rgb(186,215,221)" stroke="rgb(186,215,221)" stroke-width="1" opacity="1" d="M 204.5 140 L 203.5 142 L 204.5 140 Z " /><path fill="rgb(186,215,221)" stroke="rgb(186,215,221)" stroke-width="1" opacity="1" d="M 291.5 152 L 293.5 155 L 291.5 152 Z " /><path fill="rgb(186,215,221)" stroke="rgb(186,215,221)" stroke-width="1" opacity="1" d="M 324.5 152 L 322.5 155 L 324.5 152 Z " /><path fill="rgb(186,215,221)" stroke="rgb(186,215,221)" stroke-width="1" opacity="1" d="M 420.5 155 L 421.5 157 L 420.5 155 Z " /><path fill="rgb(186,215,221)" stroke="rgb(186,215,221)" stroke-width="1" opacity="1" d="M 338.5 160 L 343 161.5 L 339.5 162 L 338.5 160 Z " /><path fill="rgb(186,215,221)" stroke="rgb(186,215,221)" stroke-width="1" opacity="1" d="M 418.5 160 L 421 160.5 L 418.5 161 L 418.5 160 Z " /><path fill="rgb(186,215,221)" stroke="rgb(186,215,221)" stroke-width="1" opacity="1" d="M 306.5 161 Q 311 160.5 311 161.5 L 311 203.5 Q 311.1 204.6 316.5 204 L 316.5 205 Q 311.3 206.3 310 203.5 L 310 162.5 L 306.5 162 L 306.5 161 Z " /><path fill="rgb(186,215,221)" stroke="rgb(186,215,221)" stroke-width="1" opacity="1" d="M 407.5 161 L 409 163.5 L 407 162.5 L 407.5 161 Z " /><path fill="rgb(186,215,221)" stroke="rgb(186,215,221)" stroke-width="1" opacity="1" d="M 210.5 163 L 211.5 165 L 210.5 163 Z " /><path fill="rgb(186,215,221)" stroke="rgb(186,215,221)" stroke-width="1" opacity="1" d="M 433.5 164 L 435.5 167 L 433.5 164 Z " /><path fill="rgb(186,215,221)" stroke="rgb(186,215,221)" stroke-width="1" opacity="1" d="M 402.5 171 L 413 171.5 L 402.5 172 L 402.5 171 Z " /><path fill="rgb(186,215,221)" stroke="rgb(186,215,221)" stroke-width="1" opacity="1" d="M 419.5 171 L 421 173.5 L 420 173.5 L 419.5 171 Z " /><path fill="rgb(186,215,221)" stroke="rgb(186,215,221)" stroke-width="1" opacity="1" d="M 385.5 172 L 390 172.5 L 385.5 173 L 385.5 172 Z " /><path fill="rgb(186,215,221)" stroke="rgb(186,215,221)" stroke-width="1" opacity="1" d="M 369.5 173 L 374 173.5 L 369.5 174 L 369.5 173 Z " /><path fill="rgb(186,215,221)" stroke="rgb(186,215,221)" stroke-width="1" opacity="1" d="M 207.5 174 L 213 174.5 L 207.5 175 L 207.5 174 Z " /><path fill="rgb(186,215,221)" stroke="rgb(186,215,221)" stroke-width="1" opacity="1" d="M 352.5 174 L 358 174.5 L 352.5 175 L 352.5 174 Z " /><path fill="rgb(186,215,221)" stroke="rgb(186,215,221)" stroke-width="1" opacity="1" d="M 408.5 174 L 419 174.5 L 408.5 175 L 408.5 174 Z " /><path fill="rgb(186,215,221)" stroke="rgb(186,215,221)" stroke-width="1" opacity="1" d="M 388.5 175 L 393 175.5 L 388.5 176 L 388.5 175 Z " /><path fill="rgb(186,215,221)" stroke="rgb(186,215,221)" stroke-width="1" opacity="1" d="M 372.5 176 L 377 176.5 L 372.5 177 L 372.5 176 Z " /><path fill="rgb(186,215,221)" stroke="rgb(186,215,221)" stroke-width="1" opacity="1" d="M 208.5 177 L 212 177.5 L 208.5 178 L 208.5 177 Z " /><path fill="rgb(186,215,221)" stroke="rgb(186,215,221)" stroke-width="1" opacity="1" d="M 222.5 178 L 235 178.5 L 222.5 179 L 222.5 178 Z " /><path fill="rgb(186,215,221)" stroke="rgb(186,215,221)" stroke-width="1" opacity="1" d="M 260.5 178 L 272 178.5 L 260.5 179 L 260.5 178 Z " /><path fill="rgb(186,215,221)" stroke="rgb(186,215,221)" stroke-width="1" opacity="1" d="M 448.5 178 L 449 181.5 L 448 181.5 L 448.5 178 Z " /><path fill="rgb(186,215,221)" stroke="rgb(186,215,221)" stroke-width="1" opacity="1" d="M 169.5 181 L 170 184.5 L 169 184.5 L 169.5 181 Z " /><path fill="rgb(186,215,221)" stroke="rgb(186,215,221)" stroke-width="1" opacity="1" d="M 177.5 186 L 178 188.5 L 177 188.5 L 177.5 186 Z " /><path fill="rgb(186,215,221)" stroke="rgb(186,215,221)" stroke-width="1" opacity="1" d="M 348.5 192 L 351 192.5 L 348.5 193 L 348.5 192 Z " /><path fill="rgb(186,215,221)" stroke="rgb(186,215,221)" stroke-width="1" opacity="1" d="M 355.5 193 L 358 193.5 L 355.5 194 L 355.5 193 Z " /><path fill="rgb(186,215,221)" stroke="rgb(186,215,221)" stroke-width="1" opacity="1" d="M 449.5 193 L 450 197.5 L 449 197.5 L 449.5 193 Z " /><path fill="rgb(186,215,221)" stroke="rgb(186,215,221)" stroke-width="1" opacity="1" d="M 372.5 195 L 376 195.5 L 372.5 196 L 372.5 195 Z " /><path fill="rgb(186,215,221)" stroke="rgb(186,215,221)" stroke-width="1" opacity="1" d="M 169.5 196 L 170 199.5 L 169 199.5 L 169.5 196 Z " /><path fill="rgb(186,215,221)" stroke="rgb(186,215,221)" stroke-width="1" opacity="1" d="M 384.5 196 L 387 196.5 L 384.5 197 L 384.5 196 Z " /><path fill="rgb(186,215,221)" stroke="rgb(186,215,221)" stroke-width="1" opacity="1" d="M 359.5 197 L 362 197.5 L 359.5 198 L 359.5 197 Z " /><path fill="rgb(186,215,221)" stroke="rgb(186,215,221)" stroke-width="1" opacity="1" d="M 397.5 197 L 401 197.5 L 397.5 198 L 397.5 197 Z " /><path fill="rgb(186,215,221)" stroke="rgb(186,215,221)" stroke-width="1" opacity="1" d="M 369.5 198 L 372 198.5 L 369.5 199 L 369.5 198 Z " /><path fill="rgb(186,215,221)" stroke="rgb(186,215,221)" stroke-width="1" opacity="1" d="M 412.5 198 L 415 198.5 L 412.5 199 L 412.5 198 Z " /><path fill="rgb(186,215,221)" stroke="rgb(186,215,221)" stroke-width="1" opacity="1" d="M 380.5 199 L 384 199.5 L 380.5 200 L 380.5 199 Z " /><path fill="rgb(186,215,221)" stroke="rgb(186,215,221)" stroke-width="1" opacity="1" d="M 392.5 200 L 396 200.5 L 392.5 201 L 392.5 200 Z " /><path fill="rgb(186,215,221)" stroke="rgb(186,215,221)" stroke-width="1" opacity="1" d="M 404.5 201 L 407 201.5 L 404.5 202 L 404.5 201 Z " /><path fill="rgb(186,215,221)" stroke="rgb(186,215,221)" stroke-width="1" opacity="1" d="M 287.5 204 L 295 204.5 L 287.5 205 L 287.5 204 Z " /><path fill="rgb(186,215,221)" stroke="rgb(186,215,221)" stroke-width="1" opacity="1" d="M 205.5 205 L 211 205.5 L 205.5 206 L 205.5 205 Z " /><path fill="rgb(186,215,221)" stroke="rgb(186,215,221)" stroke-width="1" opacity="1" d="M 277.5 205 L 280 205.5 L 277.5 206 L 277.5 205 Z " /><path fill="rgb(186,215,221)" stroke="rgb(186,215,221)" stroke-width="1" opacity="1" d="M 326.5 205 L 329 205.5 L 326.5 206 L 326.5 205 Z " /><path fill="rgb(186,215,221)" stroke="rgb(186,215,221)" stroke-width="1" opacity="1" d="M 170.5 206 L 171 208.5 L 170 208.5 L 170.5 206 Z " /><path fill="rgb(186,215,221)" stroke="rgb(186,215,221)" stroke-width="1" opacity="1" d="M 448.5 209 L 449 211.5 L 448 211.5 L 448.5 209 Z " /><path fill="rgb(186,215,221)" stroke="rgb(186,215,221)" stroke-width="1" opacity="1" d="M 430.5 212 L 431 220.5 L 430 220.5 L 430.5 212 Z " /><path fill="rgb(186,215,221)" stroke="rgb(186,215,221)" stroke-width="1" opacity="1" d="M 144.5 215 L 156.5 215 L 157 217 L 148.5 216 L 140 218 Q 138.7 214.7 143.5 216 L 144.5 215 Z " /><path fill="rgb(186,215,221)" stroke="rgb(186,215,221)" stroke-width="1" opacity="1" d="M 211.5 215 L 215 215.5 L 211.5 216 L 211.5 215 Z " /><path fill="rgb(186,215,221)" stroke="rgb(186,215,221)" stroke-width="1" opacity="1" d="M 221.5 215 L 226 215.5 L 221.5 216 L 221.5 215 Z " /><path fill="rgb(186,215,221)" stroke="rgb(186,215,221)" stroke-width="1" opacity="1" d="M 388.5 215 L 392 215.5 L 388.5 216 L 388.5 215 Z " /><path fill="rgb(186,215,221)" stroke="rgb(186,215,221)" stroke-width="1" opacity="1" d="M 406.5 215 L 409 215.5 L 406.5 216 L 406.5 215 Z " /><path fill="rgb(186,215,221)" stroke="rgb(186,215,221)" stroke-width="1" opacity="1" d="M 158 216 L 163 217 L 163.5 219 Q 164.8 216.8 166 219.5 L 165.5 221 L 164.5 219 L 162.5 219 L 158 218 L 158 216 Z " /><path fill="rgb(186,215,221)" stroke="rgb(186,215,221)" stroke-width="1" opacity="1" d="M 137.5 217 Q 139.8 216.3 139 218.5 L 137 218.5 L 136.5 220 L 136 218.5 L 137.5 217 Z " /><path fill="rgb(186,215,221)" stroke="rgb(186,215,221)" stroke-width="1" opacity="1" d="M 132.5 220 L 133 221.5 L 131 222.5 L 132.5 220 Z " /><path fill="rgb(186,215,221)" stroke="rgb(186,215,221)" stroke-width="1" opacity="1" d="M 167.5 220 L 172.5 226 L 168 222.5 L 167.5 220 Z " /><path fill="rgb(186,215,221)" stroke="rgb(186,215,221)" stroke-width="1" opacity="1" d="M 188.5 221 L 189 223.5 L 188 223.5 L 188.5 221 Z " /><path fill="rgb(186,215,221)" stroke="rgb(186,215,221)" stroke-width="1" opacity="1" d="M 129.5 222 L 124.5 228 L 129.5 222 Z " /><path fill="rgb(186,215,221)" stroke="rgb(186,215,221)" stroke-width="1" opacity="1" d="M 174.5 226 L 175 228.5 L 176 230.5 L 176 232.5 L 175.5 234 L 173 229.5 L 173.5 228 L 172 227.5 L 174.5 226 Z " /><path fill="rgb(186,215,221)" stroke="rgb(186,215,221)" stroke-width="1" opacity="1" d="M 124.5 229 L 123.5 231 L 122 230.5 L 124.5 229 Z " /><path fill="rgb(186,215,221)" stroke="rgb(186,215,221)" stroke-width="1" opacity="1" d="M 122.5 232 L 121.5 234 L 120 233.5 L 122.5 232 Z " /><path fill="rgb(186,215,221)" stroke="rgb(186,215,221)" stroke-width="1" opacity="1" d="M 176.5 235 L 179 239.5 L 178 241.5 L 180 241.5 L 178 251.5 L 178.5 253 L 177 251.5 Q 177.7 240.5 176.5 235 Z " /><path fill="rgb(186,215,221)" stroke="rgb(186,215,221)" stroke-width="1" opacity="1" d="M 118.5 237 L 119.5 239 Q 116.7 239.7 118.5 237 Z " /><path fill="rgb(186,215,221)" stroke="rgb(186,215,221)" stroke-width="1" opacity="1" d="M 117 240 Q 120 238.8 119 242.5 L 118 243.5 L 118 253 Q 114.5 254.1 116 246.5 L 117 240 Z " /><path fill="rgb(186,215,221)" stroke="rgb(186,215,221)" stroke-width="1" opacity="1" d="M 117.5 254 L 119 257 Q 115.5 258.1 117.5 254 Z " /><path fill="rgb(186,215,221)" stroke="rgb(186,215,221)" stroke-width="1" opacity="1" d="M 224.5 255 L 225.5 257 L 224.5 255 Z " /><path fill="rgb(186,215,221)" stroke="rgb(186,215,221)" stroke-width="1" opacity="1" d="M 118.5 258 L 119.5 260 Q 116.7 260.7 118.5 258 Z " /><path fill="rgb(186,215,221)" stroke="rgb(186,215,221)" stroke-width="1" opacity="1" d="M 228.5 260 L 230.5 263 L 228.5 260 Z " /><path fill="rgb(186,215,221)" stroke="rgb(186,215,221)" stroke-width="1" opacity="1" d="M 121.5 265 L 124 266.5 L 122.5 267 L 121.5 265 Z " /><path fill="rgb(186,215,221)" stroke="rgb(186,215,221)" stroke-width="1" opacity="1" d="M 382.5 266 L 381.5 268 L 382.5 266 Z " /><path fill="rgb(186,215,221)" stroke="rgb(186,215,221)" stroke-width="1" opacity="1" d="M 123.5 268 L 128.5 273 Q 129.8 270.7 131 273.5 L 130.5 275 L 129.5 273 L 128.5 274 L 123.5 268 Z " /><path fill="rgb(186,215,221)" stroke="rgb(186,215,221)" stroke-width="1" opacity="1" d="M 169.5 268 L 168.5 270 L 169.5 268 Z " /><path fill="rgb(186,215,221)" stroke="rgb(186,215,221)" stroke-width="1" opacity="1" d="M 166.5 271 L 165.5 273 L 166.5 271 Z " /><path fill="rgb(186,215,221)" stroke="rgb(186,215,221)" stroke-width="1" opacity="1" d="M 378.5 271 L 377.5 273 L 378.5 271 Z " /><path fill="rgb(186,215,221)" stroke="rgb(186,215,221)" stroke-width="1" opacity="1" d="M 132.5 274 L 133.5 276 L 135.5 276 Q 139.3 275 138 278 L 132 275.5 L 132.5 274 Z " /><path fill="rgb(186,215,221)" stroke="rgb(186,215,221)" stroke-width="1" opacity="1" d="M 243.5 275 L 245.5 278 L 243.5 275 Z " /><path fill="rgb(186,215,221)" stroke="rgb(186,215,221)" stroke-width="1" opacity="1" d="M 139 277 L 150 278 Q 151.4 282 144.5 280 L 139 279 L 139 277 Z " /><path fill="rgb(186,215,221)" stroke="rgb(186,215,221)" stroke-width="1" opacity="1" d="M 209.5 279 L 210.5 281 L 209.5 279 Z " /><path fill="rgb(186,215,221)" stroke="rgb(186,215,221)" stroke-width="1" opacity="1" d="M 371.5 279 L 368.5 283 L 371.5 279 Z " /><path fill="rgb(186,215,221)" stroke="rgb(186,215,221)" stroke-width="1" opacity="1" d="M 249.5 280 L 250.5 282 L 249.5 280 Z " /><path fill="rgb(186,215,221)" stroke="rgb(186,215,221)" stroke-width="1" opacity="1" d="M 212.5 283 L 213.5 285 L 212.5 283 Z " /><path fill="rgb(186,215,221)" stroke="rgb(186,215,221)" stroke-width="1" opacity="1" d="M 254.5 284 L 257.5 288 L 254.5 284 Z " /><path fill="rgb(186,215,221)" stroke="rgb(186,215,221)" stroke-width="1" opacity="1" d="M 155.5 285 L 157.5 288 L 155.5 285 Z " /><path fill="rgb(186,215,221)" stroke="rgb(186,215,221)" stroke-width="1" opacity="1" d="M 363.5 286 L 362.5 288 L 363.5 286 Z " /><path fill="rgb(186,215,221)" stroke="rgb(186,215,221)" stroke-width="1" opacity="1" d="M 402.5 287 L 401.5 289 L 402.5 287 Z " /><path fill="rgb(186,215,221)" stroke="rgb(186,215,221)" stroke-width="1" opacity="1" d="M 414.5 287 L 413.5 289 L 414.5 287 Z " /><path fill="rgb(186,215,221)" stroke="rgb(186,215,221)" stroke-width="1" opacity="1" d="M 399.5 291 L 398.5 293 L 399.5 291 Z " /><path fill="rgb(186,215,221)" stroke="rgb(186,215,221)" stroke-width="1" opacity="1" d="M 162.5 293 L 164.5 296 L 162.5 293 Z " /><path fill="rgb(186,215,221)" stroke="rgb(186,215,221)" stroke-width="1" opacity="1" d="M 409.5 293 L 408.5 295 L 409.5 293 Z " /><path fill="rgb(186,215,221)" stroke="rgb(186,215,221)" stroke-width="1" opacity="1" d="M 225.5 296 L 226.5 298 L 225.5 296 Z " /><path fill="rgb(186,215,221)" stroke="rgb(186,215,221)" stroke-width="1" opacity="1" d="M 394.5 297 L 393.5 299 L 394.5 297 Z " /><path fill="rgb(186,215,221)" stroke="rgb(186,215,221)" stroke-width="1" opacity="1" d="M 403.5 300 L 403 301.5 L 405 304.5 L 402 302.5 L 403.5 300 Z " /><path fill="rgb(186,215,221)" stroke="rgb(186,215,221)" stroke-width="1" opacity="1" d="M 169.5 301 L 171.5 304 L 169.5 301 Z " /><path fill="rgb(186,215,221)" stroke="rgb(186,215,221)" stroke-width="1" opacity="1" d="M 320.5 302 L 323 302.5 L 320.5 303 L 320.5 302 Z " /><path fill="rgb(186,215,221)" stroke="rgb(186,215,221)" stroke-width="1" opacity="1" d="M 308.5 303 L 312 303.5 L 308.5 304 L 308.5 303 Z " /><path fill="rgb(186,215,221)" stroke="rgb(186,215,221)" stroke-width="1" opacity="1" d="M 405.5 306 L 406.5 308 L 405.5 306 Z " /><path fill="rgb(186,215,221)" stroke="rgb(186,215,221)" stroke-width="1" opacity="1" d="M 376.5 307 L 379 307.5 L 376.5 308 L 376.5 307 Z " /><path fill="rgb(186,215,221)" stroke="rgb(186,215,221)" stroke-width="1" opacity="1" d="M 176.5 309 L 178.5 312 L 176.5 309 Z " /><path fill="rgb(186,215,221)" stroke="rgb(186,215,221)" stroke-width="1" opacity="1" d="M 250.5 309 L 253 309.5 L 250.5 310 L 250.5 309 Z " /><path fill="rgb(186,215,221)" stroke="rgb(186,215,221)" stroke-width="1" opacity="1" d="M 365.5 309 L 368 309.5 L 365.5 310 L 365.5 309 Z " /><path fill="rgb(186,215,221)" stroke="rgb(186,215,221)" stroke-width="1" opacity="1" d="M 260.5 311 L 263 311.5 L 260.5 312 L 260.5 311 Z " /><path fill="rgb(186,215,221)" stroke="rgb(186,215,221)" stroke-width="1" opacity="1" d="M 352.5 311 L 356 311.5 L 352.5 312 L 352.5 311 Z " /><path fill="rgb(186,215,221)" stroke="rgb(186,215,221)" stroke-width="1" opacity="1" d="M 344.5 312 L 347 312.5 L 344.5 313 L 344.5 312 Z " /><path fill="rgb(186,215,221)" stroke="rgb(186,215,221)" stroke-width="1" opacity="1" d="M 273.5 313 L 277 313.5 L 273.5 314 L 273.5 313 Z " /><path fill="rgb(186,215,221)" stroke="rgb(186,215,221)" stroke-width="1" opacity="1" d="M 334.5 313 L 340 313.5 L 334.5 314 L 334.5 313 Z " /><path fill="rgb(186,215,221)" stroke="rgb(186,215,221)" stroke-width="1" opacity="1" d="M 285.5 314 L 292 314.5 L 285.5 315 L 285.5 314 Z " /><path fill="rgb(186,215,221)" stroke="rgb(186,215,221)" stroke-width="1" opacity="1" d="M 319.5 314 L 325 314.5 L 319.5 315 L 319.5 314 Z " /><path fill="rgb(186,215,221)" stroke="rgb(186,215,221)" stroke-width="1" opacity="1" d="M 408.5 314 L 412.5 319 L 408.5 314 Z " /><path fill="rgb(186,215,221)" stroke="rgb(186,215,221)" stroke-width="1" opacity="1" d="M 183.5 317 L 184.5 319 L 183.5 317 Z " /><path fill="rgb(186,215,221)" stroke="rgb(186,215,221)" stroke-width="1" opacity="1" d="M 189.5 324 L 190.5 326 L 189.5 324 Z " /><path fill="rgb(186,215,221)" stroke="rgb(186,215,221)" stroke-width="1" opacity="1" d="M 272.5 329 L 275 329.5 L 272.5 330 L 272.5 329 Z " /><path fill="rgb(186,215,221)" stroke="rgb(186,215,221)" stroke-width="1" opacity="1" d="M 280.5 330 L 287.5 330 L 288 331.5 L 286.5 331 L 280.5 331 L 280.5 330 Z " /><path fill="rgb(186,215,221)" stroke="rgb(186,215,221)" stroke-width="1" opacity="1" d="M 349.5 330 L 355 330.5 L 349.5 331 L 349.5 330 Z " /><path fill="rgb(186,215,221)" stroke="rgb(186,215,221)" stroke-width="1" opacity="1" d="M 425.5 330 Q 427.7 334.2 430 332.5 L 429 333.5 L 430.5 336 L 425.5 330 Z " /><path fill="rgb(186,215,221)" stroke="rgb(186,215,221)" stroke-width="1" opacity="1" d="M 195.5 331 L 197.5 334 L 195.5 331 Z " /><path fill="rgb(186,215,221)" stroke="rgb(186,215,221)" stroke-width="1" opacity="1" d="M 336.5 331 L 343 331.5 L 336.5 332 L 336.5 331 Z " /><path fill="rgb(186,215,221)" stroke="rgb(186,215,221)" stroke-width="1" opacity="1" d="M 285.5 332 L 284.5 334 L 285.5 332 Z " /><path fill="rgb(186,215,221)" stroke="rgb(186,215,221)" stroke-width="1" opacity="1" d="M 366.5 335 L 367.5 337 L 366.5 335 Z " /><path fill="rgb(186,215,221)" stroke="rgb(186,215,221)" stroke-width="1" opacity="1" d="M 284.5 337 L 285.5 339 L 284.5 337 Z " /><path fill="rgb(186,215,221)" stroke="rgb(186,215,221)" stroke-width="1" opacity="1" d="M 334.5 338 L 335 342.5 L 334 342.5 L 334.5 338 Z " /><path fill="rgb(186,215,221)" stroke="rgb(186,215,221)" stroke-width="1" opacity="1" d="M 203.5 340 L 204.5 342 L 203.5 340 Z " /><path fill="rgb(186,215,221)" stroke="rgb(186,215,221)" stroke-width="1" opacity="1" d="M 449 345 L 455 345.5 L 449 347 L 449 345 Z " /><path fill="rgb(186,215,221)" stroke="rgb(186,215,221)" stroke-width="1" opacity="1" d="M 458 345 L 462 346.5 L 458 347 L 458 345 Z " /><path fill="rgb(186,215,221)" stroke="rgb(186,215,221)" stroke-width="1" opacity="1" d="M 446.5 346 L 448 346.5 L 444.5 349 L 443.5 347 L 446.5 346 Z " /><path fill="rgb(186,215,221)" stroke="rgb(186,215,221)" stroke-width="1" opacity="1" d="M 463.5 346 L 468 348.5 L 467.5 350 L 466.5 348 L 464.5 348 Q 461.7 348.7 463.5 346 Z " /><path fill="rgb(186,215,221)" stroke="rgb(186,215,221)" stroke-width="1" opacity="1" d="M 469.5 349 L 471 351.5 L 469 350.5 L 469.5 349 Z " /><path fill="rgb(186,215,221)" stroke="rgb(186,215,221)" stroke-width="1" opacity="1" d="M 472.5 351 L 476.5 356 L 472.5 351 Z " /><path fill="rgb(186,215,221)" stroke="rgb(186,215,221)" stroke-width="1" opacity="1" d="M 288.5 352 L 289.5 354 L 288.5 352 Z " /><path fill="rgb(186,215,221)" stroke="rgb(186,215,221)" stroke-width="1" opacity="1" d="M 476.5 357 L 479 358.5 L 477.5 359 L 476.5 357 Z " /><path fill="rgb(186,215,221)" stroke="rgb(186,215,221)" stroke-width="1" opacity="1" d="M 478.5 360 L 481 361.5 L 482 365 Q 479.3 366.1 480 363.5 L 479.5 361 L 478.5 360 Z " /><path fill="rgb(186,215,221)" stroke="rgb(186,215,221)" stroke-width="1" opacity="1" d="M 306.5 364 L 309 364.5 L 306.5 365 L 306.5 364 Z " /><path fill="rgb(186,215,221)" stroke="rgb(186,215,221)" stroke-width="1" opacity="1" d="M 481 366 Q 484 364.8 483 368.5 L 481 367.5 L 481 366 Z " /><path fill="rgb(186,215,221)" stroke="rgb(186,215,221)" stroke-width="1" opacity="1" d="M 230.5 367 L 231 369.5 L 230 369.5 L 230.5 367 Z " /><path fill="rgb(186,215,221)" stroke="rgb(186,215,221)" stroke-width="1" opacity="1" d="M 482 370 L 484 370.5 L 484 379.5 L 483 384 Q 480.3 385.1 481 382.5 L 482 381.5 L 482 370 Z " /><path fill="rgb(186,215,221)" stroke="rgb(186,215,221)" stroke-width="1" opacity="1" d="M 371.5 373 L 372.5 375 L 371.5 373 Z " /><path fill="rgb(186,215,221)" stroke="rgb(186,215,221)" stroke-width="1" opacity="1" d="M 248.5 374 L 247.5 376 L 248.5 374 Z " /><path fill="rgb(186,215,221)" stroke="rgb(186,215,221)" stroke-width="1" opacity="1" d="M 274.5 374 L 279 374.5 L 274.5 375 L 274.5 374 Z " /><path fill="rgb(186,215,221)" stroke="rgb(186,215,221)" stroke-width="1" opacity="1" d="M 334.5 374 L 357 374.5 L 334.5 375 L 334.5 374 Z " /><path fill="rgb(186,215,221)" stroke="rgb(186,215,221)" stroke-width="1" opacity="1" d="M 287.5 375 L 292 375.5 L 287.5 376 L 287.5 375 Z " /><path fill="rgb(186,215,221)" stroke="rgb(186,215,221)" stroke-width="1" opacity="1" d="M 317.5 375 L 322 375.5 L 317.5 376 L 317.5 375 Z " /><path fill="rgb(186,215,221)" stroke="rgb(186,215,221)" stroke-width="1" opacity="1" d="M 229.5 376 L 230 380.5 L 229 380.5 L 229.5 376 Z " /><path fill="rgb(186,215,221)" stroke="rgb(186,215,221)" stroke-width="1" opacity="1" d="M 267.5 377 L 273 377.5 L 267.5 378 L 267.5 377 Z " /><path fill="rgb(186,215,221)" stroke="rgb(186,215,221)" stroke-width="1" opacity="1" d="M 282.5 378 L 285 378.5 L 282.5 379 L 282.5 378 Z " /><path fill="rgb(186,215,221)" stroke="rgb(186,215,221)" stroke-width="1" opacity="1" d="M 331.5 378 L 358 378.5 L 331.5 379 L 331.5 378 Z " /><path fill="rgb(186,215,221)" stroke="rgb(186,215,221)" stroke-width="1" opacity="1" d="M 372.5 378 L 373 381.5 L 372 381.5 L 372.5 378 Z " /><path fill="rgb(186,215,221)" stroke="rgb(186,215,221)" stroke-width="1" opacity="1" d="M 293.5 379 L 298 379.5 L 293.5 380 L 293.5 379 Z " /><path fill="rgb(186,215,221)" stroke="rgb(186,215,221)" stroke-width="1" opacity="1" d="M 313.5 379 L 319 379.5 L 313.5 380 L 313.5 379 Z " /><path fill="rgb(186,215,221)" stroke="rgb(186,215,221)" stroke-width="1" opacity="1" d="M 211.5 380 L 212 392.5 L 211 392.5 L 211.5 380 Z " /><path fill="rgb(186,215,221)" stroke="rgb(186,215,221)" stroke-width="1" opacity="1" d="M 424 380 Q 427.3 378.9 426 383 Q 422.7 384.1 424 380 Z " /><path fill="rgb(186,215,221)" stroke="rgb(186,215,221)" stroke-width="1" opacity="1" d="M 250.5 381 L 251 383.5 L 250 383.5 L 250.5 381 Z " /><path fill="rgb(186,215,221)" stroke="rgb(186,215,221)" stroke-width="1" opacity="1" d="M 425 384 Q 427.7 382.9 427 385.5 Q 429.3 386.8 426.5 388 L 426.5 386 Q 423.9 386.7 425 384 Z " /><path fill="rgb(186,215,221)" stroke="rgb(186,215,221)" stroke-width="1" opacity="1" d="M 480.5 385 Q 482.8 384.3 482 386.5 L 480.5 385 Z " /><path fill="rgb(186,215,221)" stroke="rgb(186,215,221)" stroke-width="1" opacity="1" d="M 367.5 386 L 368 388.5 L 367 388.5 L 367.5 386 Z " /><path fill="rgb(186,215,221)" stroke="rgb(186,215,221)" stroke-width="1" opacity="1" d="M 479.5 387 Q 482.5 388.5 479.5 390 L 478 389.5 L 480 388.5 L 479.5 387 Z " /><path fill="rgb(186,215,221)" stroke="rgb(186,215,221)" stroke-width="1" opacity="1" d="M 428.5 390 L 435 395.5 L 434.5 397 L 432 393 L 428.5 390 Z " /><path fill="rgb(186,215,221)" stroke="rgb(186,215,221)" stroke-width="1" opacity="1" d="M 477.5 391 L 479 391.5 L 476.5 393 L 477.5 391 Z " /><path fill="rgb(186,215,221)" stroke="rgb(186,215,221)" stroke-width="1" opacity="1" d="M 407.5 394 L 408 402.5 L 407 402.5 L 407.5 394 Z " /><path fill="rgb(186,215,221)" stroke="rgb(186,215,221)" stroke-width="1" opacity="1" d="M 476.5 394 L 474.5 397 L 476.5 394 Z " /><path fill="rgb(186,215,221)" stroke="rgb(186,215,221)" stroke-width="1" opacity="1" d="M 436.5 396 L 438 398.5 L 436 397.5 L 436.5 396 Z " /><path fill="rgb(186,215,221)" stroke="rgb(186,215,221)" stroke-width="1" opacity="1" d="M 471.5 397 L 471 398.5 L 470.5 400 L 470 398.5 L 471.5 397 Z " /><path fill="rgb(186,215,221)" stroke="rgb(186,215,221)" stroke-width="1" opacity="1" d="M 443 400 Q 446 399 445 402 Q 442 403 443 400 Z " /><path fill="rgb(186,215,221)" stroke="rgb(186,215,221)" stroke-width="1" opacity="1" d="M 466.5 400 L 467 402 L 463 403 Q 461.8 400 465.5 401 L 466.5 400 Z " /><path fill="rgb(186,215,221)" stroke="rgb(186,215,221)" stroke-width="1" opacity="1" d="M 446 401 L 449.5 402 L 462 402.5 L 460.5 404 L 451.5 404 L 448.5 402 L 446 403 L 446 401 Z " /><path fill="rgb(186,215,221)" stroke="rgb(186,215,221)" stroke-width="1" opacity="1" d="M 256.5 406 L 257.5 408 L 256.5 406 Z " /><path fill="rgb(186,215,221)" stroke="rgb(186,215,221)" stroke-width="1" opacity="1" d="M 212.5 408 L 213 413.5 L 212 413.5 L 212.5 408 Z " /><path fill="rgb(186,215,221)" stroke="rgb(186,215,221)" stroke-width="1" opacity="1" d="M 357.5 410 L 356.5 412 L 357.5 410 Z " /><path fill="rgb(186,215,221)" stroke="rgb(186,215,221)" stroke-width="1" opacity="1" d="M 362.5 411 L 358.5 416 L 362.5 411 Z " /><path fill="rgb(186,215,221)" stroke="rgb(186,215,221)" stroke-width="1" opacity="1" d="M 266.5 416 L 267.5 418 L 266.5 416 Z " /><path fill="rgb(186,215,221)" stroke="rgb(186,215,221)" stroke-width="1" opacity="1" d="M 369.5 417 L 366.5 421 L 369.5 417 Z " /><path fill="rgb(186,215,221)" stroke="rgb(186,215,221)" stroke-width="1" opacity="1" d="M 245.5 418 L 249.5 423 L 245.5 418 Z " /><path fill="rgb(186,215,221)" stroke="rgb(186,215,221)" stroke-width="1" opacity="1" d="M 406.5 419 L 407 421.5 L 406 421.5 L 406.5 419 Z " /><path fill="rgb(186,215,221)" stroke="rgb(186,215,221)" stroke-width="1" opacity="1" d="M 213.5 420 L 214 422.5 L 213 422.5 L 213.5 420 Z " /><path fill="rgb(186,215,221)" stroke="rgb(186,215,221)" stroke-width="1" opacity="1" d="M 321.5 426 L 324 426.5 L 321.5 427 L 321.5 426 Z " /><path fill="rgb(186,215,221)" stroke="rgb(186,215,221)" stroke-width="1" opacity="1" d="M 405.5 427 L 406 430.5 L 405 430.5 L 405.5 427 Z " /><path fill="rgb(186,215,221)" stroke="rgb(186,215,221)" stroke-width="1" opacity="1" d="M 299.5 430 L 302 430.5 L 299.5 431 L 299.5 430 Z " /><path fill="rgb(186,215,221)" stroke="rgb(186,215,221)" stroke-width="1" opacity="1" d="M 322.5 430 L 325 430.5 L 322.5 431 L 322.5 430 Z " /><path fill="rgb(186,215,221)" stroke="rgb(186,215,221)" stroke-width="1" opacity="1" d="M 293.5 439 L 296 439.5 L 293.5 440 L 293.5 439 Z " /><path fill="rgb(186,215,221)" stroke="rgb(186,215,221)" stroke-width="1" opacity="1" d="M 303.5 440 L 317 440.5 L 303.5 441 L 303.5 440 Z " /><path fill="rgb(186,215,221)" stroke="rgb(186,215,221)" stroke-width="1" opacity="1" d="M 210.5 450 L 211 455.5 L 210 455.5 L 210.5 450 Z " /><path fill="rgb(186,215,221)" stroke="rgb(186,215,221)" stroke-width="1" opacity="1" d="M 410.5 456 L 411 458.5 L 410 458.5 L 410.5 456 Z " /><path fill="rgb(186,215,221)" stroke="rgb(186,215,221)" stroke-width="1" opacity="1" d="M 207 461 L 210 461.5 L 207 463 L 207 461 Z " /><path fill="rgb(186,215,221)" stroke="rgb(186,215,221)" stroke-width="1" opacity="1" d="M 204.5 462 Q 206.8 461.3 206 463.5 L 202 464.5 Q 201.3 462.3 203.5 463 L 204.5 462 Z " /><path fill="rgb(186,215,221)" stroke="rgb(186,215,221)" stroke-width="1" opacity="1" d="M 409.5 462 L 416 463 L 415.5 465 L 407.5 465 L 407.5 464 Q 410 464.7 409.5 462 Z " /><path fill="rgb(186,215,221)" stroke="rgb(186,215,221)" stroke-width="1" opacity="1" d="M 200.5 464 L 201 465.5 L 199 466.5 L 200.5 464 Z " /><path fill="rgb(186,215,221)" stroke="rgb(186,215,221)" stroke-width="1" opacity="1" d="M 417 464 L 422 466.5 L 426.5 472 L 428 472.5 L 426.5 473 L 420.5 466 L 419 466.5 L 418.5 465 L 417 465.5 L 417 464 Z " /><path fill="rgb(186,215,221)" stroke="rgb(186,215,221)" stroke-width="1" opacity="1" d="M 197.5 466 L 198 467.5 L 191.5 473 L 192.5 471 L 196 468.5 L 197.5 466 Z " /><path fill="rgb(186,215,221)" stroke="rgb(186,215,221)" stroke-width="1" opacity="1" d="M 288.5 466 L 290.5 469 L 288.5 466 Z " /><path fill="rgb(186,215,221)" stroke="rgb(186,215,221)" stroke-width="1" opacity="1" d="M 326.5 466 L 327 468.5 L 325.5 470 L 324 470.5 L 324.5 472 L 323 472.5 L 323 474.5 Q 323.8 476.8 321.5 476 L 321 478.5 Q 322.5 486.1 319 485 L 321 474 L 323 473.5 L 323 471.5 L 324.5 469 L 326 468.5 Q 323.7 467.2 326.5 466 Z " /><path fill="rgb(186,215,221)" stroke="rgb(186,215,221)" stroke-width="1" opacity="1" d="M 273.5 468 L 276 468.5 L 273.5 469 L 273.5 468 Z " /><path fill="rgb(186,215,221)" stroke="rgb(186,215,221)" stroke-width="1" opacity="1" d="M 336.5 468 L 340 468.5 L 336.5 469 L 336.5 468 Z " /><path fill="rgb(186,215,221)" stroke="rgb(186,215,221)" stroke-width="1" opacity="1" d="M 237.5 469 L 241 469.5 L 237.5 470 L 237.5 469 Z " /><path fill="rgb(186,215,221)" stroke="rgb(186,215,221)" stroke-width="1" opacity="1" d="M 260.5 469 L 264 469.5 L 260.5 470 L 260.5 469 Z " /><path fill="rgb(186,215,221)" stroke="rgb(186,215,221)" stroke-width="1" opacity="1" d="M 351.5 469 L 357 469.5 L 351.5 470 L 351.5 469 Z " /><path fill="rgb(186,215,221)" stroke="rgb(186,215,221)" stroke-width="1" opacity="1" d="M 380.5 469 L 385 469.5 L 380.5 470 L 380.5 469 Z " /><path fill="rgb(186,215,221)" stroke="rgb(186,215,221)" stroke-width="1" opacity="1" d="M 292.5 470 L 296.5 473 L 298 472.5 L 297.5 475 L 292.5 470 Z " /><path fill="rgb(186,215,221)" stroke="rgb(186,215,221)" stroke-width="1" opacity="1" d="M 427.5 474 L 430 475.5 Q 430.8 477.8 428.5 477 L 428.5 475 L 427.5 474 Z " /><path fill="rgb(186,215,221)" stroke="rgb(186,215,221)" stroke-width="1" opacity="1" d="M 297.5 476 L 300 477.5 L 301 481 Q 298.3 482.1 299 479.5 L 298.5 477 L 297.5 476 Z " /><path fill="rgb(186,215,221)" stroke="rgb(186,215,221)" stroke-width="1" opacity="1" d="M 188 478 Q 191.5 476.9 190 484.5 L 190.5 487 L 192 487.5 L 190.5 488 Q 186.9 484.8 188 478 Z " /><path fill="rgb(186,215,221)" stroke="rgb(186,215,221)" stroke-width="1" opacity="1" d="M 429.5 478 Q 431.8 477.3 431 479.5 L 429.5 478 Z " /><path fill="rgb(186,215,221)" stroke="rgb(186,215,221)" stroke-width="1" opacity="1" d="M 430 481 L 432 481.5 L 432 491 Q 429 492.3 430 488.5 L 431 484.5 L 430 481 Z " /><path fill="rgb(186,215,221)" stroke="rgb(186,215,221)" stroke-width="1" opacity="1" d="M 300 482 Q 303.5 480.9 302 488.5 L 301 491 L 299 491.5 L 300 492.5 L 295.5 497 L 300 489.5 L 300 482 Z " /><path fill="rgb(186,215,221)" stroke="rgb(186,215,221)" stroke-width="1" opacity="1" d="M 320.5 486 L 321.5 488 Q 318.7 488.7 320.5 486 Z " /><path fill="rgb(186,215,221)" stroke="rgb(186,215,221)" stroke-width="1" opacity="1" d="M 191.5 489 L 194 490 L 197 494.5 L 191.5 489 Z " /><path fill="rgb(186,215,221)" stroke="rgb(186,215,221)" stroke-width="1" opacity="1" d="M 323.5 492 L 326.5 496 L 323.5 492 Z " /><path fill="rgb(186,215,221)" stroke="rgb(186,215,221)" stroke-width="1" opacity="1" d="M 429 492 Q 432 491 431 494 Q 428 495 429 492 Z " /><path fill="rgb(186,215,221)" stroke="rgb(186,215,221)" stroke-width="1" opacity="1" d="M 198.5 494 L 200 496.5 L 198 497.5 L 198 495.5 L 198.5 494 Z " /><path fill="rgb(186,215,221)" stroke="rgb(186,215,221)" stroke-width="1" opacity="1" d="M 328.5 495 L 331 498.5 L 329 497.5 L 328.5 495 Z " /><path fill="rgb(186,215,221)" stroke="rgb(186,215,221)" stroke-width="1" opacity="1" d="M 201.5 496 L 202.5 498 L 204 497.5 L 204.5 499 L 206 498.5 L 206.5 500 L 208.5 500 Q 210.8 499.3 210 501.5 L 208.5 501 L 201 497.5 L 201.5 496 Z " /><path fill="rgb(186,215,221)" stroke="rgb(186,215,221)" stroke-width="1" opacity="1" d="M 293.5 496 L 294 497.5 L 291 499 L 291.5 497 L 293 497.5 L 293.5 496 Z " /><path fill="rgb(186,215,221)" stroke="rgb(186,215,221)" stroke-width="1" opacity="1" d="M 428.5 497 L 427.5 499 Q 425.3 498.3 426 500.5 L 423 502.5 L 426.5 498 L 428.5 497 Z " /><path fill="rgb(186,215,221)" stroke="rgb(186,215,221)" stroke-width="1" opacity="1" d="M 286 499 Q 289 498 288 501 Q 285 502 286 499 Z " /><path fill="rgb(186,215,221)" stroke="rgb(186,215,221)" stroke-width="1" opacity="1" d="M 283.5 500 Q 286.1 499.3 285 502 L 270 505 Q 268.6 501.3 274.5 503 L 283.5 500 Z " /><path fill="rgb(186,215,221)" stroke="rgb(186,215,221)" stroke-width="1" opacity="1" d="M 211 501 L 216 502 Q 217.1 504.7 214.5 504 L 211 503 L 211 501 Z " /><path fill="rgb(186,215,221)" stroke="rgb(186,215,221)" stroke-width="1" opacity="1" d="M 338 501 Q 340.7 499.9 340 502.5 L 341.5 502 L 351 505.5 L 348.5 506 L 338 503 L 338 501 Z " /><path fill="rgb(186,215,221)" stroke="rgb(186,215,221)" stroke-width="1" opacity="1" d="M 421.5 502 L 422 503.5 L 417 506 L 417.5 504 L 419 504.5 Q 418.3 502.3 420.5 503 L 421.5 502 Z " /><path fill="rgb(186,215,221)" stroke="rgb(186,215,221)" stroke-width="1" opacity="1" d="M 217 503 Q 221.1 501.7 220 505 Q 215.9 506.3 217 503 Z " /><path fill="rgb(186,215,221)" stroke="rgb(186,215,221)" stroke-width="1" opacity="1" d="M 221 504 L 232.5 506 L 257.5 506 L 268.5 504 L 267.5 506 L 251.5 507 L 250.5 508 L 238.5 508 L 237.5 507 L 227.5 507 L 221 506 L 221 504 Z " /><path fill="rgb(186,215,221)" stroke="rgb(186,215,221)" stroke-width="1" opacity="1" d="M 352.5 505 L 389 507.5 L 361.5 508 Q 359.8 505.3 353.5 507 L 352.5 505 Z " /><path fill="rgb(186,215,221)" stroke="rgb(186,215,221)" stroke-width="1" opacity="1" d="M 413.5 505 L 416 506.5 L 412.5 507 L 413.5 505 Z " /><path fill="rgb(186,215,221)" stroke="rgb(186,215,221)" stroke-width="1" opacity="1" d="M 406.5 506 Q 412.4 504.3 411 508 L 405 507.5 L 406.5 506 Z " /><path fill="rgb(186,215,221)" stroke="rgb(186,215,221)" stroke-width="1" opacity="1" d="M 391.5 507 L 404 507.5 L 391.5 508 L 391.5 507 Z " /><path fill="rgb(194,231,241)" stroke="rgb(194,231,241)" stroke-width="1" opacity="1" d="M 0 0 L 600 0 L 600 572 L 0 572 L 0 0 Z M 296 63 L 296 65 Q 293 63 287 64 L 287 66 L 282 65 L 282 67 L 281 66 L 276 67 Q 271 65 272 69 L 271 68 L 268 69 Q 264 68 265 71 L 264 70 L 256 72 L 256 74 L 255 73 Q 252 72 253 75 L 252 74 L 246 76 L 246 78 L 245 77 L 244 79 L 242 79 Q 239 78 240 81 L 239 80 L 238 82 L 237 81 L 226 87 L 224 90 L 223 89 L 221 90 L 218 94 L 217 93 L 208 100 Q 203 102 206 104 L 202 108 L 201 107 L 199 110 L 195 114 L 196 115 L 195 114 L 194 116 Q 190 117 193 119 L 192 119 L 189 123 L 189 125 L 188 124 L 187 126 L 187 128 L 185 128 L 186 130 L 184 130 L 180 140 L 180 142 L 179 141 L 177 145 L 178 147 L 177 146 L 174 153 L 175 156 L 173 156 L 174 159 L 172 159 L 173 163 L 171 163 L 170 169 L 171 173 L 169 173 Q 168 178 170 180 L 170 181 L 168 182 L 168 201 L 170 201 L 169 210 L 171 209 L 170 211 Q 168 216 172 215 L 171 217 Q 171 222 174 225 L 173 224 Q 170 225 171 223 L 164 218 Q 162 214 161 217 L 156 214 L 146 214 L 144 216 L 142 215 L 138 217 Q 135 216 136 219 L 135 218 L 134 220 L 133 219 L 131 222 L 129 223 Q 126 222 127 225 L 124 227 Q 125 230 123 229 Q 120 230 122 232 L 121 232 Q 118 233 120 235 L 118 238 L 116 242 L 117 244 L 115 252 Q 118 253 116 255 Q 115 258 118 257 L 117 259 Q 116 261 119 260 L 118 262 L 120 262 L 120 264 Q 122 263 121 267 L 123 267 L 124 271 L 128 273 Q 130 277 132 276 Q 131 278 134 277 L 136 278 Q 135 280 138 279 Q 139 277 141 280 L 143 279 L 150 280 L 153 285 L 155 284 L 154 286 L 159 292 Q 160 294 162 292 L 161 294 L 166 299 Q 165 301 169 300 L 168 302 L 173 308 Q 174 310 176 308 L 175 310 L 178 314 Q 180 318 182 315 Q 184 316 182 318 L 187 324 L 189 323 L 188 325 L 193 330 Q 192 332 195 331 L 196 334 L 202 338 Q 204 339 202 341 L 208 345 Q 210 346 208 348 L 209 350 L 210 353 L 210 393 L 212 393 L 211 398 L 211 414 L 213 414 L 212 418 Q 211 424 214 423 L 213 425 L 213 437 L 214 438 L 212 438 L 213 442 L 212 441 L 210 449 L 211 450 Q 207 449 209 457 L 211 457 L 210 459 L 212 461 L 209 460 Q 206 459 207 462 L 206 461 L 203 463 L 201 463 L 200 465 L 196 467 L 194 470 L 191 472 L 191 474 L 190 474 L 190 476 L 189 476 L 189 478 L 187 484 L 189 484 L 189 487 Q 188 489 191 488 L 191 491 L 197 496 L 198 495 L 198 498 L 200 497 Q 202 496 201 499 L 207 501 L 209 501 L 211 502 Q 212 505 214 503 L 219 505 L 221 505 L 224 507 L 226 506 L 230 508 L 232 507 Q 237 506 239 508 L 251 508 L 252 507 L 257 508 L 264 506 L 266 507 L 269 505 L 271 506 L 274 505 L 276 505 L 278 504 L 280 504 Q 282 505 281 503 L 283 503 L 285 502 L 287 502 L 290 500 L 293 499 Q 295 500 294 497 L 300 493 L 302 490 L 303 487 L 302 483 L 300 479 Q 301 475 298 476 L 298 472 L 296 472 L 293 469 L 292 470 Q 293 468 289 466 L 298 459 L 301 458 L 302 456 L 305 457 L 304 456 L 306 456 Q 312 458 314 455 L 314 457 L 319 458 L 321 459 L 320 461 Q 322 459 324 462 L 325 461 L 325 464 L 325 468 L 319 478 L 320 480 L 319 483 Q 316 484 320 486 L 319 488 L 321 488 L 320 490 L 322 490 L 324 490 L 322 493 L 329 498 Q 328 501 332 499 L 332 501 L 334 500 L 334 502 L 336 501 L 336 503 L 338 502 L 342 505 L 344 504 Q 345 507 347 505 L 350 507 L 352 506 L 355 508 L 358 507 L 366 509 Q 371 511 373 508 L 407 508 L 408 509 L 411 508 L 413 508 L 421 505 Q 423 506 422 504 L 424 504 L 424 503 L 429 499 Q 428 495 431 496 L 430 495 L 432 494 L 431 492 L 433 487 L 433 485 L 432 482 L 432 480 Q 433 477 430 478 L 430 474 L 429 474 L 429 473 L 420 464 Q 415 465 414 462 L 412 463 L 411 461 L 411 459 Q 413 460 412 456 L 411 456 L 411 455 L 408 441 L 407 441 L 407 440 L 407 424 L 406 423 L 408 423 L 407 404 L 409 404 L 409 379 L 410 373 L 420 377 L 422 380 L 424 379 L 423 384 L 425 383 L 424 385 L 425 388 L 428 389 L 434 397 Q 437 396 436 399 L 440 400 Q 442 399 441 402 Q 443 400 445 403 L 446 402 L 448 404 L 449 403 L 453 405 Q 460 406 463 403 L 467 403 L 467 402 L 469 402 L 469 401 L 471 401 L 472 399 L 472 397 L 476 393 L 473 397 Q 475 400 477 396 Q 476 392 479 393 Q 481 392 479 391 L 481 390 L 482 385 L 484 383 L 483 381 L 485 378 L 484 371 L 484 367 L 483 366 L 483 365 L 482 362 L 480 360 L 479 357 Q 476 358 477 355 L 472 351 L 470 349 L 468 349 Q 469 346 467 347 L 465 347 L 464 346 L 463 346 Q 460 347 461 344 L 458 345 Q 452 347 451 344 Q 448 343 449 346 L 448 345 L 445 347 L 443 347 L 442 344 Q 438 345 439 342 L 430 334 Q 431 331 429 332 L 426 329 L 425 330 Q 422 329 424 328 Q 423 325 422 327 L 422 326 L 409 314 L 409 313 L 405 306 Q 406 302 404 303 L 405 301 L 404 300 L 406 300 L 416 287 L 419 284 L 418 283 L 420 283 L 420 282 Q 423 280 421 279 L 423 278 Q 425 277 423 276 L 425 275 Q 427 274 425 273 L 427 273 L 427 272 L 427 270 L 429 269 L 430 267 L 430 265 L 432 265 L 440 249 L 439 247 L 441 247 L 442 244 L 441 242 L 443 242 L 444 239 L 443 236 L 445 236 L 444 233 L 446 232 L 447 229 L 446 225 L 448 224 L 447 220 L 449 220 L 448 213 L 450 213 L 449 199 L 451 199 L 451 189 L 450 193 L 449 193 L 450 189 L 450 179 L 449 178 L 449 177 Q 451 171 447 172 L 448 166 L 446 166 L 447 162 L 445 162 L 446 158 L 444 158 L 445 154 L 444 154 L 444 153 Q 445 150 443 151 L 443 150 Q 444 147 442 148 L 442 147 L 441 143 L 440 143 L 440 142 L 439 138 L 437 138 L 438 136 L 436 136 L 437 134 L 436 134 L 436 133 L 435 132 L 435 131 L 434 130 L 434 129 L 430 122 L 428 120 L 428 119 L 423 112 L 422 112 L 422 111 L 416 105 L 412 100 L 406 95 L 403 92 L 402 93 L 402 92 L 396 88 L 394 88 L 393 86 L 387 83 L 385 83 L 385 82 L 374 76 L 372 77 L 371 75 L 364 72 Q 359 73 360 71 L 359 71 L 357 70 L 355 71 L 354 69 L 351 68 L 348 69 L 348 67 L 344 68 L 343 66 L 338 65 L 333 66 L 332 64 L 324 65 L 324 64 L 296 63 Z " /><path fill="rgb(194,231,241)" stroke="rgb(194,231,241)" stroke-width="1" opacity="1" d="M 336.5 71 L 341 71.5 L 336.5 72 L 336.5 71 Z " /><path fill="rgb(194,231,241)" stroke="rgb(194,231,241)" stroke-width="1" opacity="1" d="M 254.5 100 L 255 102.5 L 254 102.5 L 254.5 100 Z " /><path fill="rgb(194,231,241)" stroke="rgb(194,231,241)" stroke-width="1" opacity="1" d="M 359.5 123 L 360.5 125 L 359.5 123 Z " /><path fill="rgb(194,231,241)" stroke="rgb(194,231,241)" stroke-width="1" opacity="1" d="M 406.5 135 L 407.5 137 L 406.5 135 Z " /><path fill="rgb(194,231,241)" stroke="rgb(194,231,241)" stroke-width="1" opacity="1" d="M 281.5 136 L 284 136.5 L 281.5 137 L 281.5 136 Z " /><path fill="rgb(194,231,241)" stroke="rgb(194,231,241)" stroke-width="1" opacity="1" d="M 309.5 163 L 310 202.5 L 309 202.5 L 309.5 163 Z " /><path fill="rgb(194,231,241)" stroke="rgb(194,231,241)" stroke-width="1" opacity="1" d="M 148.5 216 L 153 216.5 L 148.5 217 L 148.5 216 Z " /><path fill="rgb(194,231,241)" stroke="rgb(194,231,241)" stroke-width="1" opacity="1" d="M 179 247 L 182 247.5 L 181.5 249 L 183 249.5 L 182 251.5 L 184 251.5 L 181.5 253 L 178 250.5 L 179 247 Z " /><path fill="rgb(194,231,241)" stroke="rgb(194,231,241)" stroke-width="1" opacity="1" d="M 254.5 373 L 259 373.5 L 254.5 374 L 254.5 373 Z " /><path fill="rgb(194,231,241)" stroke="rgb(194,231,241)" stroke-width="1" opacity="1" d="M 309.5 431 L 314 431.5 L 309.5 432 L 309.5 431 Z " /><path fill="rgb(194,231,241)" stroke="rgb(194,231,241)" stroke-width="1" opacity="1" d="M 405.5 433 L 406 435.5 L 405 435.5 L 405.5 433 Z " /><path fill="rgb(194,231,241)" stroke="rgb(194,231,241)" stroke-width="1" opacity="1" d="M 264.5 469 L 267 469.5 L 264.5 470 L 264.5 469 Z " /><path fill="rgb(194,231,241)" stroke="rgb(194,231,241)" stroke-width="1" opacity="1" d="M 348.5 469 L 351 469.5 L 348.5 470 L 348.5 469 Z " /><path fill="rgb(194,231,241)" stroke="rgb(194,231,241)" stroke-width="1" opacity="1" d="M 430.5 484 L 431 487.5 L 430 487.5 L 430.5 484 Z " /><path fill="rgb(194,231,241)" stroke="rgb(194,231,241)" stroke-width="1" opacity="1" d="M 232.5 505 L 235 505.5 L 232.5 506 L 232.5 505 Z " /><path fill="rgb(194,231,241)" stroke="rgb(194,231,241)" stroke-width="1" opacity="1" d="M 254.5 505 L 258 505.5 L 254.5 506 L 254.5 505 Z " /><path fill="rgb(194,231,241)" stroke="rgb(194,231,241)" stroke-width="1" opacity="1" d="M 356.5 505 L 359 505.5 L 356.5 506 L 356.5 505 Z " /><path fill="rgb(194,231,241)" stroke="rgb(194,231,241)" stroke-width="1" opacity="1" d="M 373.5 506 L 388 506.5 L 373.5 507 L 373.5 506 Z " /><path fill="rgb(196,240,251)" stroke="rgb(196,240,251)" stroke-width="1" opacity="1" d="M 296.5 63 L 324 63.5 L 296.5 64 L 296.5 63 Z " /><path fill="rgb(196,240,251)" stroke="rgb(196,240,251)" stroke-width="1" opacity="1" d="M 287.5 64 L 294 64.5 L 287.5 65 L 287.5 64 Z " /><path fill="rgb(196,240,251)" stroke="rgb(196,240,251)" stroke-width="1" opacity="1" d="M 326.5 64 L 332 64.5 L 326.5 65 L 326.5 64 Z " /><path fill="rgb(196,240,251)" stroke="rgb(196,240,251)" stroke-width="1" opacity="1" d="M 281.5 65 L 286 65.5 L 272.5 68 L 272.5 67 L 281.5 65 Z " /><path fill="rgb(196,240,251)" stroke="rgb(196,240,251)" stroke-width="1" opacity="1" d="M 333.5 65 L 343 66.5 L 338.5 67 L 333.5 66 L 333.5 65 Z " /><path fill="rgb(196,240,251)" stroke="rgb(196,240,251)" stroke-width="1" opacity="1" d="M 344.5 67 L 354 69.5 L 351.5 70 L 344.5 68 L 344.5 67 Z " /><path fill="rgb(196,240,251)" stroke="rgb(196,240,251)" stroke-width="1" opacity="1" d="M 268.5 68 L 271 68.5 L 265.5 70 L 265.5 69 L 268.5 68 Z " /><path fill="rgb(196,240,251)" stroke="rgb(196,240,251)" stroke-width="1" opacity="1" d="M 261.5 70 L 264 70.5 L 253.5 74 L 253.5 73 L 261.5 70 Z " /><path fill="rgb(196,240,251)" stroke="rgb(196,240,251)" stroke-width="1" opacity="1" d="M 361.5 72 L 371 75.5 L 369.5 76 L 361.5 73 L 361.5 72 Z " /><path fill="rgb(196,240,251)" stroke="rgb(196,240,251)" stroke-width="1" opacity="1" d="M 250.5 74 L 252 74.5 L 244.5 78 L 245.5 76 L 250.5 74 Z " /><path fill="rgb(196,240,251)" stroke="rgb(196,240,251)" stroke-width="1" opacity="1" d="M 372.5 76 L 385.5 82 L 387 81.5 L 386.5 83 L 391 85.5 L 389.5 85 L 372.5 77 L 372.5 76 Z " /><path fill="rgb(196,240,251)" stroke="rgb(196,240,251)" stroke-width="1" opacity="1" d="M 236.5 81 L 235.5 83 L 236.5 81 Z " /><path fill="rgb(196,240,251)" stroke="rgb(196,240,251)" stroke-width="1" opacity="1" d="M 232.5 83 L 234 83.5 L 229.5 86 L 230.5 84 L 232.5 83 Z " /><path fill="rgb(196,240,251)" stroke="rgb(196,240,251)" stroke-width="1" opacity="1" d="M 227.5 86 L 226.5 88 L 224.5 89 L 225.5 87 L 227.5 86 Z " /><path fill="rgb(196,240,251)" stroke="rgb(196,240,251)" stroke-width="1" opacity="1" d="M 394.5 87 L 408.5 97 L 410 96.5 L 409.5 98 L 411.5 97 L 412 99.5 Q 411.3 101.8 413.5 101 L 415 100.5 L 414 103 Q 416.7 101.9 416 104.5 L 428 118.5 L 425 116.5 L 422 111.5 L 406.5 96 L 395.5 89 L 394.5 87 Z " /><path fill="rgb(196,240,251)" stroke="rgb(196,240,251)" stroke-width="1" opacity="1" d="M 222.5 89 L 221.5 91 L 218.5 93 L 220.5 90 L 222.5 89 Z " /><path fill="rgb(196,240,251)" stroke="rgb(196,240,251)" stroke-width="1" opacity="1" d="M 216.5 93 L 213.5 97 L 205.5 103 L 207.5 100 L 216.5 93 Z " /><path fill="rgb(196,240,251)" stroke="rgb(196,240,251)" stroke-width="1" opacity="1" d="M 203.5 104 L 201 107.5 L 192.5 118 L 194 115.5 L 203.5 104 Z " /><path fill="rgb(196,240,251)" stroke="rgb(196,240,251)" stroke-width="1" opacity="1" d="M 191.5 119 L 190 121.5 L 185.5 129 L 185 127.5 L 191.5 119 Z " /><path fill="rgb(196,240,251)" stroke="rgb(196,240,251)" stroke-width="1" opacity="1" d="M 428.5 120 L 434 128.5 L 432 127.5 L 428.5 120 Z " /><path fill="rgb(196,240,251)" stroke="rgb(196,240,251)" stroke-width="1" opacity="1" d="M 183.5 132 L 183 133.5 L 180.5 139 L 180 137.5 L 183.5 132 Z " /><path fill="rgb(196,240,251)" stroke="rgb(196,240,251)" stroke-width="1" opacity="1" d="M 435.5 132 L 438 136.5 L 437 136.5 L 435.5 132 Z " /><path fill="rgb(196,240,251)" stroke="rgb(196,240,251)" stroke-width="1" opacity="1" d="M 209.5 135 L 206.5 139 L 209.5 135 Z " /><path fill="rgb(196,240,251)" stroke="rgb(196,240,251)" stroke-width="1" opacity="1" d="M 438.5 138 L 442 146.5 L 441 146.5 L 438.5 138 Z " /><path fill="rgb(196,240,251)" stroke="rgb(196,240,251)" stroke-width="1" opacity="1" d="M 179.5 140 L 179 141.5 L 173.5 158 L 173 155.5 L 179.5 140 Z " /><path fill="rgb(196,240,251)" stroke="rgb(196,240,251)" stroke-width="1" opacity="1" d="M 443.5 151 L 447 164.5 L 446 164.5 L 443.5 151 Z " /><path fill="rgb(196,240,251)" stroke="rgb(196,240,251)" stroke-width="1" opacity="1" d="M 172.5 159 L 173 161.5 L 172 161.5 L 172.5 159 Z " /><path fill="rgb(196,240,251)" stroke="rgb(196,240,251)" stroke-width="1" opacity="1" d="M 171.5 163 L 172 166.5 L 171 166.5 L 171.5 163 Z " /><path fill="rgb(196,240,251)" stroke="rgb(196,240,251)" stroke-width="1" opacity="1" d="M 447.5 166 L 448 169.5 L 447 169.5 L 447.5 166 Z " /><path fill="rgb(196,240,251)" stroke="rgb(196,240,251)" stroke-width="1" opacity="1" d="M 169.5 167 Q 171.8 167.8 171 171.5 L 169.5 179 L 169 172.5 L 170 168.5 L 169.5 167 Z " /><path fill="rgb(196,240,251)" stroke="rgb(196,240,251)" stroke-width="1" opacity="1" d="M 448.5 172 L 449 176.5 L 448 176.5 L 448.5 172 Z " /><path fill="rgb(196,240,251)" stroke="rgb(196,240,251)" stroke-width="1" opacity="1" d="M 449.5 178 L 451 198.5 L 450 198.5 L 449.5 178 Z " /><path fill="rgb(196,240,251)" stroke="rgb(196,240,251)" stroke-width="1" opacity="1" d="M 168.5 181 L 169 200.5 L 168 200.5 L 168.5 181 Z " /><path fill="rgb(196,240,251)" stroke="rgb(196,240,251)" stroke-width="1" opacity="1" d="M 177.5 182 L 178 184.5 L 177 184.5 L 177.5 182 Z " /><path fill="rgb(196,240,251)" stroke="rgb(196,240,251)" stroke-width="1" opacity="1" d="M 169.5 203 L 171 214.5 L 170 214.5 L 169.5 203 Z " /><path fill="rgb(196,240,251)" stroke="rgb(196,240,251)" stroke-width="1" opacity="1" d="M 449.5 203 L 450 212.5 L 449 212.5 L 449.5 203 Z " /><path fill="rgb(196,240,251)" stroke="rgb(196,240,251)" stroke-width="1" opacity="1" d="M 145.5 214 L 156 214.5 L 145.5 215 L 145.5 214 Z " /><path fill="rgb(196,240,251)" stroke="rgb(196,240,251)" stroke-width="1" opacity="1" d="M 448.5 214 L 449 219.5 L 447.5 224 L 447 220.5 L 448.5 214 Z " /><path fill="rgb(196,240,251)" stroke="rgb(196,240,251)" stroke-width="1" opacity="1" d="M 171.5 216 L 173 222.5 L 172 222.5 L 171.5 216 Z " /><path fill="rgb(196,240,251)" stroke="rgb(196,240,251)" stroke-width="1" opacity="1" d="M 132.5 219 L 131.5 221 L 132.5 219 Z " /><path fill="rgb(196,240,251)" stroke="rgb(196,240,251)" stroke-width="1" opacity="1" d="M 169.5 221 L 170.5 223 L 169.5 221 Z " /><path fill="rgb(196,240,251)" stroke="rgb(196,240,251)" stroke-width="1" opacity="1" d="M 124.5 224 Q 127.5 225.5 124.5 227 L 124.5 224 Z " /><path fill="rgb(196,240,251)" stroke="rgb(196,240,251)" stroke-width="1" opacity="1" d="M 172.5 224 L 174 226.5 L 173 226.5 L 172.5 224 Z " /><path fill="rgb(196,240,251)" stroke="rgb(196,240,251)" stroke-width="1" opacity="1" d="M 446.5 225 L 447 228.5 L 445.5 232 L 445 229.5 L 446.5 225 Z " /><path fill="rgb(196,240,251)" stroke="rgb(196,240,251)" stroke-width="1" opacity="1" d="M 122.5 229 L 121.5 231 L 122.5 229 Z " /><path fill="rgb(196,240,251)" stroke="rgb(196,240,251)" stroke-width="1" opacity="1" d="M 120.5 232 L 119.5 234 L 120.5 232 Z " /><path fill="rgb(196,240,251)" stroke="rgb(196,240,251)" stroke-width="1" opacity="1" d="M 444.5 233 L 445 235.5 L 443 241.5 L 443.5 243 L 442 242.5 Q 437.4 257.9 428.5 269 L 429 267.5 Q 439.1 252.6 444.5 233 Z " /><path fill="rgb(196,240,251)" stroke="rgb(196,240,251)" stroke-width="1" opacity="1" d="M 179.5 242 L 181 247 Q 176.9 248.2 179.5 242 Z " /><path fill="rgb(196,240,251)" stroke="rgb(196,240,251)" stroke-width="1" opacity="1" d="M 115.5 248 L 116 251.5 L 115 251.5 L 115.5 248 Z " /><path fill="rgb(196,240,251)" stroke="rgb(196,240,251)" stroke-width="1" opacity="1" d="M 179.5 250 L 179.5 252 L 182.5 253 L 182 251.5 L 182.5 250 L 186 255.5 L 184.5 255 L 178 251.5 L 179.5 250 Z " /><path fill="rgb(196,240,251)" stroke="rgb(196,240,251)" stroke-width="1" opacity="1" d="M 116.5 254 L 117 256.5 L 116 256.5 L 116.5 254 Z " /><path fill="rgb(196,240,251)" stroke="rgb(196,240,251)" stroke-width="1" opacity="1" d="M 124.5 270 L 126.5 273 L 124.5 270 Z " /><path fill="rgb(196,240,251)" stroke="rgb(196,240,251)" stroke-width="1" opacity="1" d="M 427.5 270 L 427 271.5 L 424.5 275 L 426 272.5 L 427.5 270 Z " /><path fill="rgb(196,240,251)" stroke="rgb(196,240,251)" stroke-width="1" opacity="1" d="M 129.5 274 L 130.5 276 L 129.5 274 Z " /><path fill="rgb(196,240,251)" stroke="rgb(196,240,251)" stroke-width="1" opacity="1" d="M 423.5 276 L 422.5 278 L 423.5 276 Z " /><path fill="rgb(196,240,251)" stroke="rgb(196,240,251)" stroke-width="1" opacity="1" d="M 421.5 279 L 420 281.5 L 403.5 302 L 405 299.5 L 421.5 279 Z " /><path fill="rgb(196,240,251)" stroke="rgb(196,240,251)" stroke-width="1" opacity="1" d="M 150.5 280 L 168 299.5 L 166 300 L 150.5 280 Z " /><path fill="rgb(196,240,251)" stroke="rgb(196,240,251)" stroke-width="1" opacity="1" d="M 223.5 294 L 224.5 296 L 223.5 294 Z " /><path fill="rgb(196,240,251)" stroke="rgb(196,240,251)" stroke-width="1" opacity="1" d="M 168.5 301 L 195 330.5 L 193 331 L 168.5 301 Z " /><path fill="rgb(196,240,251)" stroke="rgb(196,240,251)" stroke-width="1" opacity="1" d="M 409.5 314 L 417.5 322 L 419 321.5 L 418.5 323 L 422.5 326 L 424 325.5 L 423 326.5 L 436.5 340 L 439 341.5 L 438.5 343 L 423.5 328 L 422 328 Q 423.1 325.3 420.5 326 L 409.5 314 Z " /><path fill="rgb(196,240,251)" stroke="rgb(196,240,251)" stroke-width="1" opacity="1" d="M 196.5 333 L 200.5 338 L 196.5 333 Z " /><path fill="rgb(196,240,251)" stroke="rgb(196,240,251)" stroke-width="1" opacity="1" d="M 201.5 339 L 206.5 345 L 201.5 339 Z " /><path fill="rgb(196,240,251)" stroke="rgb(196,240,251)" stroke-width="1" opacity="1" d="M 245.5 341 L 242.5 345 L 245.5 341 Z " /><path fill="rgb(196,240,251)" stroke="rgb(196,240,251)" stroke-width="1" opacity="1" d="M 375.5 344 L 376.5 346 L 375.5 344 Z " /><path fill="rgb(196,240,251)" stroke="rgb(196,240,251)" stroke-width="1" opacity="1" d="M 440.5 344 L 444 346.5 L 441.5 345 L 440.5 344 Z " /><path fill="rgb(196,240,251)" stroke="rgb(196,240,251)" stroke-width="1" opacity="1" d="M 458.5 344 L 461 344.5 L 458.5 345 L 458.5 344 Z " /><path fill="rgb(196,240,251)" stroke="rgb(196,240,251)" stroke-width="1" opacity="1" d="M 207.5 346 L 208.5 348 L 207.5 346 Z " /><path fill="rgb(196,240,251)" stroke="rgb(196,240,251)" stroke-width="1" opacity="1" d="M 209.5 349 L 209.5 351 L 211 351.5 L 211 392.5 L 210 392.5 L 210 352.5 L 208 350.5 L 209.5 349 Z " /><path fill="rgb(196,240,251)" stroke="rgb(196,240,251)" stroke-width="1" opacity="1" d="M 438.5 352 L 437.5 354 L 438.5 352 Z " /><path fill="rgb(196,240,251)" stroke="rgb(196,240,251)" stroke-width="1" opacity="1" d="M 474.5 352 L 476.5 355 L 474.5 352 Z " /><path fill="rgb(196,240,251)" stroke="rgb(196,240,251)" stroke-width="1" opacity="1" d="M 478.5 357 L 479.5 359 L 478.5 357 Z " /><path fill="rgb(196,240,251)" stroke="rgb(196,240,251)" stroke-width="1" opacity="1" d="M 480.5 360 L 482 362.5 L 481 362.5 L 480.5 360 Z " /><path fill="rgb(196,240,251)" stroke="rgb(196,240,251)" stroke-width="1" opacity="1" d="M 385.5 368 L 386 370.5 L 385 370.5 L 385.5 368 Z " /><path fill="rgb(196,240,251)" stroke="rgb(196,240,251)" stroke-width="1" opacity="1" d="M 409.5 371 L 424 378.5 L 421.5 380 L 419.5 377 L 410 373 L 409 378.5 L 408.5 404 L 408 378.5 L 409.5 371 Z " /><path fill="rgb(196,240,251)" stroke="rgb(196,240,251)" stroke-width="1" opacity="1" d="M 484.5 372 L 485 377.5 L 484 377.5 L 484.5 372 Z " /><path fill="rgb(196,240,251)" stroke="rgb(196,240,251)" stroke-width="1" opacity="1" d="M 385.5 378 L 386 380.5 L 385 380.5 L 385.5 378 Z " /><path fill="rgb(196,240,251)" stroke="rgb(196,240,251)" stroke-width="1" opacity="1" d="M 423.5 382 L 425 384.5 L 423 383.5 L 423.5 382 Z " /><path fill="rgb(196,240,251)" stroke="rgb(196,240,251)" stroke-width="1" opacity="1" d="M 425.5 386 L 427 388.5 L 425 387.5 L 425.5 386 Z " /><path fill="rgb(196,240,251)" stroke="rgb(196,240,251)" stroke-width="1" opacity="1" d="M 479.5 391 L 478.5 393 L 479.5 391 Z " /><path fill="rgb(196,240,251)" stroke="rgb(196,240,251)" stroke-width="1" opacity="1" d="M 430.5 393 L 433.5 397 L 430.5 393 Z " /><path fill="rgb(196,240,251)" stroke="rgb(196,240,251)" stroke-width="1" opacity="1" d="M 476.5 395 L 474.5 398 L 476.5 395 Z " /><path fill="rgb(196,240,251)" stroke="rgb(196,240,251)" stroke-width="1" opacity="1" d="M 211.5 397 L 212 413.5 L 211 413.5 L 211.5 397 Z " /><path fill="rgb(196,240,251)" stroke="rgb(196,240,251)" stroke-width="1" opacity="1" d="M 471.5 399 L 470.5 401 L 471.5 399 Z " /><path fill="rgb(196,240,251)" stroke="rgb(196,240,251)" stroke-width="1" opacity="1" d="M 466.5 402 L 467.5 404 L 466.5 402 Z " /><path fill="rgb(196,240,251)" stroke="rgb(196,240,251)" stroke-width="1" opacity="1" d="M 452.5 404 L 460 404.5 L 452.5 405 L 452.5 404 Z " /><path fill="rgb(196,240,251)" stroke="rgb(196,240,251)" stroke-width="1" opacity="1" d="M 407.5 408 L 408 422.5 L 407 423.5 L 407 439.5 L 411 450.5 L 412 458.5 L 411 458.5 L 410 450.5 L 406 439.5 L 406 423.5 L 407 422.5 L 407.5 408 Z " /><path fill="rgb(196,240,251)" stroke="rgb(196,240,251)" stroke-width="1" opacity="1" d="M 212.5 417 L 213 422.5 L 212 422.5 L 212.5 417 Z " /><path fill="rgb(196,240,251)" stroke="rgb(196,240,251)" stroke-width="1" opacity="1" d="M 363.5 422 L 362.5 424 L 363.5 422 Z " /><path fill="rgb(196,240,251)" stroke="rgb(196,240,251)" stroke-width="1" opacity="1" d="M 213.5 424 L 214 436.5 L 213 436.5 L 213.5 424 Z " /><path fill="rgb(196,240,251)" stroke="rgb(196,240,251)" stroke-width="1" opacity="1" d="M 212.5 438 L 213 440.5 L 210.5 449 L 210 445.5 L 212.5 438 Z " /><path fill="rgb(196,240,251)" stroke="rgb(196,240,251)" stroke-width="1" opacity="1" d="M 321.5 439 L 324 439.5 L 321.5 440 L 321.5 439 Z " /><path fill="rgb(196,240,251)" stroke="rgb(196,240,251)" stroke-width="1" opacity="1" d="M 209.5 450 L 211 458.5 L 210 458.5 Q 207.7 455.6 209.5 450 Z " /><path fill="rgb(196,240,251)" stroke="rgb(196,240,251)" stroke-width="1" opacity="1" d="M 305.5 455 L 313 455.5 L 302.5 457 L 302.5 456 L 305.5 455 Z " /><path fill="rgb(196,240,251)" stroke="rgb(196,240,251)" stroke-width="1" opacity="1" d="M 314.5 456 Q 322.8 457.2 326 463.5 L 325.5 467 Q 325.7 462.3 322.5 461 Q 321.3 463.2 320 460.5 L 318.5 458 L 314.5 457 L 314.5 456 Z " /><path fill="rgb(196,240,251)" stroke="rgb(196,240,251)" stroke-width="1" opacity="1" d="M 299.5 457 L 301 457.5 L 290.5 465 L 294.5 460 L 299.5 457 Z " /><path fill="rgb(196,240,251)" stroke="rgb(196,240,251)" stroke-width="1" opacity="1" d="M 410.5 460 L 411 462.5 L 410 462.5 L 410.5 460 Z " /><path fill="rgb(196,240,251)" stroke="rgb(196,240,251)" stroke-width="1" opacity="1" d="M 197.5 465 L 196.5 467 L 197.5 465 Z " /><path fill="rgb(196,240,251)" stroke="rgb(196,240,251)" stroke-width="1" opacity="1" d="M 322.5 468 L 325 468.5 Q 322.9 471.8 322.5 468 Z " /><path fill="rgb(196,240,251)" stroke="rgb(196,240,251)" stroke-width="1" opacity="1" d="M 427.5 471 L 428.5 473 L 427.5 471 Z " /><path fill="rgb(196,240,251)" stroke="rgb(196,240,251)" stroke-width="1" opacity="1" d="M 296.5 472 L 297.5 474 L 296.5 472 Z " /><path fill="rgb(196,240,251)" stroke="rgb(196,240,251)" stroke-width="1" opacity="1" d="M 321.5 473 L 321 474.5 L 320.5 476 L 320 474.5 L 321.5 473 Z " /><path fill="rgb(196,240,251)" stroke="rgb(196,240,251)" stroke-width="1" opacity="1" d="M 302.5 484 L 303 486.5 L 302 486.5 L 302.5 484 Z " /><path fill="rgb(196,240,251)" stroke="rgb(196,240,251)" stroke-width="1" opacity="1" d="M 302.5 488 L 302 489.5 L 301.5 491 L 301 489.5 L 302.5 488 Z " /><path fill="rgb(196,240,251)" stroke="rgb(196,240,251)" stroke-width="1" opacity="1" d="M 191.5 490 L 196.5 496 L 191.5 490 Z " /><path fill="rgb(196,240,251)" stroke="rgb(196,240,251)" stroke-width="1" opacity="1" d="M 322.5 492 L 325.5 496 L 322.5 492 Z " /><path fill="rgb(196,240,251)" stroke="rgb(196,240,251)" stroke-width="1" opacity="1" d="M 428.5 498 L 426.5 501 L 428.5 498 Z " /><path fill="rgb(196,240,251)" stroke="rgb(196,240,251)" stroke-width="1" opacity="1" d="M 256.5 507 L 260 507.5 L 256.5 508 L 256.5 507 Z " /><path fill="rgb(196,240,251)" stroke="rgb(196,240,251)" stroke-width="1" opacity="1" d="M 354.5 507 L 357 507.5 L 354.5 508 L 354.5 507 Z " /><path fill="rgb(196,240,251)" stroke="rgb(196,240,251)" stroke-width="1" opacity="1" d="M 412.5 507 L 415 507.5 L 412.5 508 L 412.5 507 Z " /><path fill="rgb(196,240,251)" stroke="rgb(196,240,251)" stroke-width="1" opacity="1" d="M 365.5 508 L 372 508.5 L 365.5 509 L 365.5 508 Z " /><path fill="rgb(62,30,28)" stroke="rgb(62,30,28)" stroke-width="1" opacity="1" d="M 292.5 96 Q 299 95 300 99.5 Q 302.2 104.2 301 112.5 Q 299.8 117.2 292.5 116 L 290 115 L 287 105.5 Q 287.9 98.9 292.5 96 Z M 296 100 L 293 103 Q 292 108 295 109 Q 298 110 299 108 Q 300 101 296 100 Z " /><path fill="rgb(62,30,28)" stroke="rgb(62,30,28)" stroke-width="1" opacity="1" d="M 322.5 97 Q 329 96 330 100.5 L 332 109.5 L 331 114.5 L 328.5 117 L 321.5 117 L 321 115.5 Q 316.3 112.7 318 103.5 L 322.5 97 Z M 320 101 L 320 106 L 324 108 Q 326 107 325 103 Q 324 100 320 101 Z " /><path fill="rgb(62,30,28)" stroke="rgb(62,30,28)" stroke-width="1" opacity="1" d="M 213.5 141 L 230.5 148 L 258.5 154 L 269 158.5 L 266.5 159 L 261.5 157 L 230.5 151 L 212 144 L 213.5 141 Z " /><path fill="rgb(62,30,28)" stroke="rgb(62,30,28)" stroke-width="1" opacity="1" d="M 406.5 141 L 408 144 L 378.5 153 L 339 161 Q 337.7 157.7 342.5 159 L 375.5 151 L 406.5 141 Z " /><path fill="rgb(62,30,28)" stroke="rgb(62,30,28)" stroke-width="1" opacity="1" d="M 414.5 158 L 424.5 158 L 426 159.5 L 423.5 161 Q 422 158.5 416.5 160 L 408 163 L 409.5 160 L 414.5 158 Z " /><path fill="rgb(62,30,28)" stroke="rgb(62,30,28)" stroke-width="1" opacity="1" d="M 193.5 159 L 195.5 159 L 205.5 161 L 211 164.5 Q 211.8 167.1 208.5 166 Q 203.2 160.5 192 162 L 193.5 159 Z " /><path fill="rgb(62,30,28)" stroke="rgb(62,30,28)" stroke-width="1" opacity="1" d="M 394.5 172 L 419.5 172 L 420 174 L 344 177 L 344.5 175 L 362.5 175 L 363.5 174 L 378.5 174 L 379.5 173 L 393.5 173 L 394.5 172 Z " /><path fill="rgb(62,30,28)" stroke="rgb(62,30,28)" stroke-width="1" opacity="1" d="M 203.5 175 L 252.5 176 L 253.5 175 L 274 175 L 273.5 178 L 216.5 178 L 215.5 177 L 205.5 177 L 203.5 175 Z " /><path fill="rgb(62,30,28)" stroke="rgb(62,30,28)" stroke-width="1" opacity="1" d="M 273.5 189 L 276 190.5 Q 276.8 193.1 273.5 192 L 267.5 194 L 240.5 198 L 213.5 205 L 205.5 205 L 206.5 203 L 215.5 202 L 236.5 196 L 256.5 192 L 262.5 192 L 273.5 189 Z " /><path fill="rgb(62,30,28)" stroke="rgb(62,30,28)" stroke-width="1" opacity="1" d="M 342 192 L 353.5 194 L 360.5 194 L 361.5 195 L 379.5 196 L 380.5 197 L 407.5 198 Q 409.2 200.8 415.5 199 L 417 200.5 Q 417.5 203.5 410.5 202 L 399.5 200 L 388.5 200 L 387.5 199 L 375.5 199 L 374.5 198 L 356.5 197 L 342 194 L 342 192 Z " /><path fill="rgb(62,30,28)" stroke="rgb(62,30,28)" stroke-width="1" opacity="1" d="M 282.5 205 L 321.5 205 L 322.5 206 L 331.5 206 L 332.5 207 L 339.5 207 L 340.5 208 L 358.5 210 L 386.5 216 L 411.5 216 Q 423.9 213.9 431.5 207 L 432 208.5 L 429.5 212 L 410 218 L 391 253.5 Q 380.8 270.8 366.5 284 Q 343.8 303.8 300.5 303 L 280.5 299 L 264.5 292 L 237 269.5 L 235 266.5 Q 223.1 255.9 215 241.5 L 202.5 216 Q 193 214.7 187 211 L 187.5 209 L 209.5 216 L 227.5 216 L 257.5 209 L 274.5 206 L 281.5 206 L 282.5 205 Z M 280 208 L 225 219 Q 214 220 208 218 Q 218 245 236 264 L 268 290 L 289 298 L 302 299 L 303 300 L 324 299 L 340 295 Q 354 290 365 281 Q 390 254 405 219 L 387 219 L 352 212 L 331 210 L 330 209 L 322 209 L 321 208 L 280 208 Z " /><path fill="rgb(62,30,28)" stroke="rgb(62,30,28)" stroke-width="1" opacity="1" d="M 221.5 300 L 231 303.5 L 228.5 304 L 221.5 301 L 220 301.5 L 221.5 300 Z " /><path fill="rgb(62,30,28)" stroke="rgb(62,30,28)" stroke-width="1" opacity="1" d="M 399.5 302 L 403 303.5 L 401.5 303 L 396.5 304 L 396.5 303 L 399.5 302 Z " /><path fill="rgb(62,30,28)" stroke="rgb(62,30,28)" stroke-width="1" opacity="1" d="M 219.5 303 L 220 305.5 L 218.5 309 L 218 306.5 L 219.5 303 Z " /><path fill="rgb(62,30,28)" stroke="rgb(62,30,28)" stroke-width="1" opacity="1" d="M 232.5 304 L 236 304.5 L 232.5 305 L 232.5 304 Z " /><path fill="rgb(62,30,28)" stroke="rgb(62,30,28)" stroke-width="1" opacity="1" d="M 389.5 304 L 391.5 304 L 394 304.5 L 388.5 306 L 389.5 304 Z " /><path fill="rgb(62,30,28)" stroke="rgb(62,30,28)" stroke-width="1" opacity="1" d="M 219.5 310 L 222 313.5 L 219 311.5 L 219.5 310 Z " /><path fill="rgb(62,30,28)" stroke="rgb(62,30,28)" stroke-width="1" opacity="1" d="M 223.5 314 L 227 315.5 L 225.5 316 L 223.5 314 Z " /><path fill="rgb(62,30,28)" stroke="rgb(62,30,28)" stroke-width="1" opacity="1" d="M 407.5 314 L 405.5 317 L 401.5 318 L 401.5 317 L 407.5 314 Z " /><path fill="rgb(62,30,28)" stroke="rgb(62,30,28)" stroke-width="1" opacity="1" d="M 390.5 320 L 392 320.5 L 387.5 322 L 387.5 321 L 390.5 320 Z " /><path fill="rgb(62,30,28)" stroke="rgb(62,30,28)" stroke-width="1" opacity="1" d="M 246.5 322 L 249 322.5 L 246.5 323 L 246.5 322 Z " /><path fill="rgb(62,30,28)" stroke="rgb(62,30,28)" stroke-width="1" opacity="1" d="M 384.5 322 L 386 322.5 L 382.5 324 L 382.5 323 L 384.5 322 Z " /><path fill="rgb(62,30,28)" stroke="rgb(62,30,28)" stroke-width="1" opacity="1" d="M 253.5 324 L 259 325.5 L 256.5 326 L 253.5 325 L 253.5 324 Z " /><path fill="rgb(62,30,28)" stroke="rgb(62,30,28)" stroke-width="1" opacity="1" d="M 261.5 326 L 267 327.5 L 264.5 328 L 261.5 327 L 261.5 326 Z " /><path fill="rgb(62,30,28)" stroke="rgb(62,30,28)" stroke-width="1" opacity="1" d="M 368.5 327 L 371 327.5 L 368.5 328 L 368.5 327 Z " /><path fill="rgb(62,30,28)" stroke="rgb(62,30,28)" stroke-width="1" opacity="1" d="M 360.5 328 L 365 328.5 L 360.5 329 L 360.5 328 Z " /><path fill="rgb(62,30,28)" stroke="rgb(62,30,28)" stroke-width="1" opacity="1" d="M 286 332 L 333.5 332 L 335 333.5 L 324.5 334 Q 322.8 331.3 316.5 333 L 313.5 334 L 286.5 334 L 286 332 Z " /><path fill="rgb(62,30,28)" stroke="rgb(62,30,28)" stroke-width="1" opacity="1" d="M 406.5 332 L 408 335.5 L 408 345.5 L 409 346.5 L 409 365.5 L 408 368.5 L 408 370.5 L 407.5 378 L 406 376.5 L 406 334.5 L 405 333.5 L 406.5 332 Z " /><path fill="rgb(62,30,28)" stroke="rgb(62,30,28)" stroke-width="1" opacity="1" d="M 212.5 333 L 213 339.5 L 212 340.5 L 212 350 L 210 349.5 L 210 337.5 L 212.5 333 Z " /><path fill="rgb(62,30,28)" stroke="rgb(62,30,28)" stroke-width="1" opacity="1" d="M 285.5 337 L 297.5 338 L 298.5 337 L 334 337 L 333.5 339 L 311.5 339 L 309.5 339 Q 299.2 337.7 292.5 340 Q 291.3 337.8 286.5 339 L 285.5 337 Z " /><path fill="rgb(62,30,28)" stroke="rgb(62,30,28)" stroke-width="1" opacity="1" d="M 306.5 341 Q 313.5 339.5 315 343.5 L 316 348.5 L 312.5 353 L 310 353 L 310 363.5 L 308 364 L 308 353.5 L 306.5 353 Q 302.1 351.4 303 344.5 L 306.5 341 Z M 309 344 L 306 348 Q 307 350 311 350 Q 313 349 312 346 L 309 344 Z " /><path fill="rgb(62,30,28)" stroke="rgb(62,30,28)" stroke-width="1" opacity="1" d="M 249.5 374 L 268.5 374 L 269.5 375 L 309.5 377 L 310.5 376 L 325.5 376 L 326.5 375 L 361.5 375 L 362.5 374 L 372 374 L 372 386.5 L 369 400.5 Q 364.8 410.8 356.5 417 Q 346 425 331.5 429 L 320.5 430 L 319.5 431 L 304.5 431 L 303.5 430 L 292.5 429 L 278.5 424 Q 267.8 418.8 260 410.5 L 250 394.5 L 247 377.5 L 249.5 374 Z M 249 376 L 253 395 L 261 408 Q 269 417 282 422 L 294 426 L 307 427 L 308 428 Q 338 428 355 414 Q 362 408 366 399 L 369 382 Q 370 378 368 377 L 366 378 L 327 378 L 326 379 L 290 379 L 289 378 L 278 378 L 277 377 L 259 377 L 258 376 L 249 376 Z " /><path fill="rgb(215,43,42)" stroke="rgb(215,43,42)" stroke-width="1" opacity="1" d="M 303.5 125 Q 319.3 123.3 324 132.5 L 327 140.5 L 327 145.5 Q 325.6 153 320.5 157 Q 315.2 162.2 303.5 161 L 294 156 L 290 149.5 L 289 140.5 L 292.5 133 L 294 132.5 Q 291.3 130.8 295.5 129 L 303.5 125 Z M 304 133 Q 300 135 301 141 L 308 142 L 310 138 L 309 134 L 304 133 Z " /><path fill="rgb(215,43,42)" stroke="rgb(215,43,42)" stroke-width="1" opacity="1" d="M 279.5 208 L 320.5 208 L 321.5 209 L 329.5 209 L 330.5 210 L 351.5 212 L 386.5 219 L 405 219 Q 389.6 254.4 364.5 281 Q 353.8 289.8 339.5 295 L 323.5 299 L 302.5 300 L 301.5 299 L 288.5 298 L 267.5 290 L 236 263.5 Q 217.5 244.7 208 218 Q 214 220 224.5 219 L 279.5 208 Z " /><path fill="rgb(215,43,42)" stroke="rgb(215,43,42)" stroke-width="1" opacity="1" d="M 221.5 301 L 228.5 304 L 240 306 Q 238.9 308.7 241.5 308 L 243.5 308 L 259.5 312 L 265.5 312 L 273.5 314 L 282.5 314 L 283.5 315 L 328.5 315 L 329.5 314 L 339.5 314 L 340.5 313 L 355.5 312 L 378.5 308 L 383.5 306 L 390.5 306 L 394.5 304 L 401.5 303 L 405 305.5 Q 408.6 307.4 408 313.5 L 400.5 318 L 390.5 320 L 367.5 328 L 360.5 328 L 356.5 330 Q 350.3 328.2 348.5 331 L 334.5 331 L 333.5 332 L 332.5 330 Q 330.8 332.7 329 328.5 L 326.5 324 L 324 322.5 L 323.5 321 L 321.5 321 L 316.5 319 L 304.5 319 Q 294.8 322.3 289.5 330 L 276.5 330 L 245.5 322 L 222.5 314 L 220 311.5 L 219 306.5 L 221.5 301 Z " /><path fill="rgb(215,43,42)" stroke="rgb(215,43,42)" stroke-width="1" opacity="1" d="M 316.5 333 L 324 333.5 L 316.5 334 L 316.5 333 Z " /><path fill="rgb(215,43,42)" stroke="rgb(215,43,42)" stroke-width="1" opacity="1" d="M 312.5 336 L 315 336.5 L 312.5 337 L 312.5 336 Z " /><path fill="rgb(58,146,171)" stroke="rgb(58,146,171)" stroke-width="1" opacity="1" d="M 302.5 64 L 316.5 64 L 317.5 65 L 335.5 66 L 362.5 73 Q 381.7 79.8 397.5 90 Q 409.8 97.7 419 108.5 Q 435 126.5 443 152.5 L 449 182.5 L 449 208.5 L 443 237.5 L 431 263.5 Q 418.6 285.1 401.5 302 L 390.5 305 L 389.5 304 L 387 305.5 Q 407.2 286.2 420 259.5 L 429 233.5 L 431 212.5 L 431 210.5 L 441 194.5 Q 443.5 189 442 179.5 Q 439.7 169.8 433.5 164 L 424.5 158 L 418 157.5 L 422 156.5 L 411 139.5 L 404.5 133 L 388.5 123 L 364.5 117 L 363 117.5 L 365 112.5 L 365 97.5 Q 361.8 82.8 351.5 75 L 342.5 71 L 334.5 71 Q 321.3 73.3 315 82.5 L 311 90.5 L 309.5 100 L 303 83.5 L 294.5 75 Q 288.7 70.4 276.5 72 Q 266.8 74.3 261 80.5 L 255 90.5 L 254 109.5 L 256 116.5 L 239.5 119 L 227.5 123 Q 212.6 129.6 203 141.5 L 194 158.5 L 194.5 160 Q 193.3 157.8 192 160.5 Q 192.8 162.8 190.5 162 L 180 171.5 Q 175.8 177.3 177 188.5 L 179 195.5 L 187 208.5 L 187 211 L 189 211.5 L 188 212.5 L 188 223.5 L 192 244.5 L 203 270.5 Q 212.4 286.6 226.5 298 L 235 303.5 L 231.5 304 L 221.5 300 Q 218.3 302.8 218 308.5 L 221.5 314 Q 242.9 323.4 268 328 Q 269.3 331 265.5 330 Q 249.3 334.8 240 346.5 Q 233.2 355.2 230 367.5 L 229 380.5 Q 231.8 382.3 230 388.5 L 234 401.5 Q 239.8 414.2 249.5 423 Q 258.1 430.9 270.5 435 L 293.5 440 L 316.5 441 L 317.5 440 L 330.5 439 L 346.5 434 Q 360.3 427.8 370 417.5 Q 380.5 406.5 385 389.5 Q 383.8 384.8 386 383.5 L 386 365.5 Q 381.5 345 366.5 335 L 358 330.5 L 359.5 329 L 364.5 329 L 377.5 326 L 408.5 315 L 444 348.5 Q 435.8 352.3 431 359.5 L 425 371.5 L 424.5 380 L 422.5 377 L 409 371 L 408.5 376 L 408 370.5 L 408 368.5 L 409 365.5 L 409 346.5 L 408 345.5 L 408 337.5 L 409 337.5 L 410 366.5 L 409 368.5 L 422.5 376 L 428 361.5 L 438.5 350 L 441 348.5 L 425.5 332 L 409.5 317 L 406.5 317 L 375.5 328 L 363 330 L 364.5 333 Q 373.3 336.7 378 344.5 L 386 359.5 L 387 364.5 L 387 385.5 Q 381.6 411.6 363.5 425 L 347.5 435 L 332.5 440 L 320.5 441 L 319.5 442 L 300.5 442 L 299.5 441 L 285.5 440 L 266.5 435 Q 250.7 428.3 241 415.5 Q 233.8 406.7 230 394.5 L 228 384.5 L 228 372.5 L 230 362.5 L 235 351.5 L 245.5 339 Q 252.9 332.4 264 329.5 L 259.5 327 L 248.5 325 L 242.5 322 L 230.5 319 L 219 313.5 L 217 306.5 L 220 298 L 218.5 298 L 207 286.5 Q 194.4 273.6 186.5 256 L 185.5 258 L 178 254 Q 175.5 265.8 167.5 273 Q 162.5 278.4 154 279 L 154 281.5 L 157 285.5 L 208.5 344 L 209.5 340 L 210 346.5 L 205 342.5 L 152 281.5 L 152 280 Q 149 281 150 278 L 158.5 277 L 170 268.5 L 175 260.5 L 177.5 252 L 185.5 256 L 185 254.5 L 175 231.5 L 175 229.5 L 170 205.5 L 169 186.5 L 170 185.5 L 170 176.5 L 173 160.5 L 179 142.5 Q 190.1 116.1 210.5 99 Q 228.4 84.4 251.5 75 L 273.5 68 L 290.5 65 L 301.5 65 L 302.5 64 Z M 298 66 L 297 67 L 282 68 L 278 70 Q 293 69 300 77 Q 306 83 309 92 L 313 83 L 322 74 L 337 69 Q 331 66 323 67 L 322 66 L 298 66 Z M 273 70 L 249 78 L 233 86 Q 215 95 202 110 Q 203 112 200 111 L 192 122 L 180 145 L 174 164 L 172 174 L 172 181 L 171 182 L 172 210 L 179 237 L 190 262 L 204 281 L 206 284 L 223 299 L 225 299 L 217 292 L 203 274 L 194 256 L 187 231 L 186 212 L 179 200 L 175 186 L 176 177 L 179 171 Q 185 163 193 159 L 195 152 L 202 141 Q 211 130 224 123 L 237 118 L 253 116 L 254 115 L 252 105 L 253 92 L 258 82 Q 264 73 277 71 L 273 70 Z M 351 72 L 352 73 L 361 83 L 367 100 L 366 115 L 371 117 L 379 118 L 393 123 L 404 130 L 413 140 L 425 157 Q 427 156 426 159 L 434 162 Q 442 169 444 182 L 444 190 L 442 197 L 432 212 L 432 227 L 430 237 L 423 257 L 412 278 L 397 298 Q 392 300 396 302 L 401 301 Q 418 283 431 261 L 442 236 L 447 212 L 447 179 L 441 152 Q 433 126 417 109 Q 392 82 351 72 Z " /><path fill="rgb(58,146,171)" stroke="rgb(58,146,171)" stroke-width="1" opacity="1" d="M 291.5 96 L 290.5 98 L 291.5 96 Z " /><path fill="rgb(58,146,171)" stroke="rgb(58,146,171)" stroke-width="1" opacity="1" d="M 297.5 96 L 298.5 98 L 297.5 96 Z " /><path fill="rgb(58,146,171)" stroke="rgb(58,146,171)" stroke-width="1" opacity="1" d="M 328.5 98 L 329.5 100 L 328.5 98 Z " /><path fill="rgb(58,146,171)" stroke="rgb(58,146,171)" stroke-width="1" opacity="1" d="M 323.5 101 L 324.5 103 L 323.5 101 Z " /><path fill="rgb(58,146,171)" stroke="rgb(58,146,171)" stroke-width="1" opacity="1" d="M 298.5 104 L 299 107.5 L 298 107.5 L 298.5 104 Z " /><path fill="rgb(58,146,171)" stroke="rgb(58,146,171)" stroke-width="1" opacity="1" d="M 309.5 104 L 311 114 L 308.5 115 L 308 113.5 L 309 112.5 L 309.5 104 Z " /><path fill="rgb(58,146,171)" stroke="rgb(58,146,171)" stroke-width="1" opacity="1" d="M 301.5 105 L 302 109.5 L 301 109.5 L 301.5 105 Z " /><path fill="rgb(58,146,171)" stroke="rgb(58,146,171)" stroke-width="1" opacity="1" d="M 317.5 105 L 318 109.5 L 317 109.5 L 317.5 105 Z " /><path fill="rgb(58,146,171)" stroke="rgb(58,146,171)" stroke-width="1" opacity="1" d="M 331.5 105 L 332 107.5 L 331 107.5 L 331.5 105 Z " /><path fill="rgb(58,146,171)" stroke="rgb(58,146,171)" stroke-width="1" opacity="1" d="M 331.5 110 L 332 112.5 L 331 112.5 L 331.5 110 Z " /><path fill="rgb(58,146,171)" stroke="rgb(58,146,171)" stroke-width="1" opacity="1" d="M 319.5 114 L 320.5 116 L 319.5 114 Z " /><path fill="rgb(58,146,171)" stroke="rgb(58,146,171)" stroke-width="1" opacity="1" d="M 323.5 117 L 327 117.5 L 323.5 118 L 323.5 117 Z " /><path fill="rgb(58,146,171)" stroke="rgb(58,146,171)" stroke-width="1" opacity="1" d="M 360.5 123 L 359.5 125 L 360.5 123 Z " /><path fill="rgb(58,146,171)" stroke="rgb(58,146,171)" stroke-width="1" opacity="1" d="M 261.5 128 L 262.5 130 L 261.5 128 Z " /><path fill="rgb(58,146,171)" stroke="rgb(58,146,171)" stroke-width="1" opacity="1" d="M 197.5 159 L 200 159.5 L 197.5 160 L 197.5 159 Z " /><path fill="rgb(58,146,171)" stroke="rgb(58,146,171)" stroke-width="1" opacity="1" d="M 211.5 165 L 210.5 167 L 209 166.5 L 211.5 165 Z " /><path fill="rgb(58,146,171)" stroke="rgb(58,146,171)" stroke-width="1" opacity="1" d="M 413.5 171 L 419 171.5 L 413.5 172 L 413.5 171 Z " /><path fill="rgb(58,146,171)" stroke="rgb(58,146,171)" stroke-width="1" opacity="1" d="M 390.5 172 L 394 172.5 L 390.5 173 L 390.5 172 Z " /><path fill="rgb(58,146,171)" stroke="rgb(58,146,171)" stroke-width="1" opacity="1" d="M 374.5 173 L 379 173.5 L 374.5 174 L 374.5 173 Z " /><path fill="rgb(58,146,171)" stroke="rgb(58,146,171)" stroke-width="1" opacity="1" d="M 358.5 174 L 363 174.5 L 358.5 175 L 358.5 174 Z " /><path fill="rgb(58,146,171)" stroke="rgb(58,146,171)" stroke-width="1" opacity="1" d="M 400.5 174 L 408 174.5 L 400.5 175 L 400.5 174 Z " /><path fill="rgb(58,146,171)" stroke="rgb(58,146,171)" stroke-width="1" opacity="1" d="M 223.5 175 L 253 175.5 L 223.5 176 L 223.5 175 Z " /><path fill="rgb(58,146,171)" stroke="rgb(58,146,171)" stroke-width="1" opacity="1" d="M 383.5 175 L 388 175.5 L 383.5 176 L 383.5 175 Z " /><path fill="rgb(58,146,171)" stroke="rgb(58,146,171)" stroke-width="1" opacity="1" d="M 365.5 176 L 372 176.5 L 365.5 177 L 365.5 176 Z " /><path fill="rgb(58,146,171)" stroke="rgb(58,146,171)" stroke-width="1" opacity="1" d="M 212.5 177 L 216 177.5 L 212.5 178 L 212.5 177 Z " /><path fill="rgb(58,146,171)" stroke="rgb(58,146,171)" stroke-width="1" opacity="1" d="M 235.5 178 L 258 178.5 L 235.5 179 L 235.5 178 Z " /><path fill="rgb(58,146,171)" stroke="rgb(58,146,171)" stroke-width="1" opacity="1" d="M 361.5 194 L 364 194.5 L 361.5 195 L 361.5 194 Z " /><path fill="rgb(58,146,171)" stroke="rgb(58,146,171)" stroke-width="1" opacity="1" d="M 380.5 196 L 384 196.5 L 380.5 197 L 380.5 196 Z " /><path fill="rgb(58,146,171)" stroke="rgb(58,146,171)" stroke-width="1" opacity="1" d="M 362.5 197 L 365 197.5 L 362.5 198 L 362.5 197 Z " /><path fill="rgb(58,146,171)" stroke="rgb(58,146,171)" stroke-width="1" opacity="1" d="M 393.5 197 L 397 197.5 L 393.5 198 L 393.5 197 Z " /><path fill="rgb(58,146,171)" stroke="rgb(58,146,171)" stroke-width="1" opacity="1" d="M 372.5 198 L 375 198.5 L 372.5 199 L 372.5 198 Z " /><path fill="rgb(58,146,171)" stroke="rgb(58,146,171)" stroke-width="1" opacity="1" d="M 408.5 198 L 412 198.5 L 408.5 199 L 408.5 198 Z " /><path fill="rgb(58,146,171)" stroke="rgb(58,146,171)" stroke-width="1" opacity="1" d="M 384.5 199 L 388 199.5 L 384.5 200 L 384.5 199 Z " /><path fill="rgb(58,146,171)" stroke="rgb(58,146,171)" stroke-width="1" opacity="1" d="M 396.5 200 L 400 200.5 L 396.5 201 L 396.5 200 Z " /><path fill="rgb(58,146,171)" stroke="rgb(58,146,171)" stroke-width="1" opacity="1" d="M 407.5 201 L 410 201.5 L 407.5 202 L 407.5 201 Z " /><path fill="rgb(58,146,171)" stroke="rgb(58,146,171)" stroke-width="1" opacity="1" d="M 295.5 204 L 311 204.5 L 295.5 205 L 295.5 204 Z " /><path fill="rgb(58,146,171)" stroke="rgb(58,146,171)" stroke-width="1" opacity="1" d="M 322.5 205 L 326 205.5 L 322.5 206 L 322.5 205 Z " /><path fill="rgb(58,146,171)" stroke="rgb(58,146,171)" stroke-width="1" opacity="1" d="M 332.5 206 L 335 206.5 L 332.5 207 L 332.5 206 Z " /><path fill="rgb(58,146,171)" stroke="rgb(58,146,171)" stroke-width="1" opacity="1" d="M 409.5 215 L 412 215.5 L 409.5 216 L 409.5 215 Z " /><path fill="rgb(58,146,171)" stroke="rgb(58,146,171)" stroke-width="1" opacity="1" d="M 163.5 218 L 164.5 220 L 163.5 218 Z " /><path fill="rgb(58,146,171)" stroke="rgb(58,146,171)" stroke-width="1" opacity="1" d="M 166.5 220 L 167.5 222 L 166.5 220 Z " /><path fill="rgb(58,146,171)" stroke="rgb(58,146,171)" stroke-width="1" opacity="1" d="M 131.5 221 L 123.5 230 L 131.5 221 Z " /><path fill="rgb(58,146,171)" stroke="rgb(58,146,171)" stroke-width="1" opacity="1" d="M 171.5 225 L 172.5 227 L 171.5 225 Z " /><path fill="rgb(58,146,171)" stroke="rgb(58,146,171)" stroke-width="1" opacity="1" d="M 122.5 231 L 121.5 233 L 122.5 231 Z " /><path fill="rgb(58,146,171)" stroke="rgb(58,146,171)" stroke-width="1" opacity="1" d="M 222.5 252 L 223.5 254 L 222.5 252 Z " /><path fill="rgb(58,146,171)" stroke="rgb(58,146,171)" stroke-width="1" opacity="1" d="M 231.5 263 L 234.5 267 L 231.5 263 Z " /><path fill="rgb(58,146,171)" stroke="rgb(58,146,171)" stroke-width="1" opacity="1" d="M 123.5 267 L 129.5 274 L 123.5 267 Z " /><path fill="rgb(58,146,171)" stroke="rgb(58,146,171)" stroke-width="1" opacity="1" d="M 239.5 271 L 242.5 275 L 239.5 271 Z " /><path fill="rgb(58,146,171)" stroke="rgb(58,146,171)" stroke-width="1" opacity="1" d="M 376.5 273 L 374.5 276 L 376.5 273 Z " /><path fill="rgb(58,146,171)" stroke="rgb(58,146,171)" stroke-width="1" opacity="1" d="M 365.5 284 L 364.5 286 L 365.5 284 Z " /><path fill="rgb(58,146,171)" stroke="rgb(58,146,171)" stroke-width="1" opacity="1" d="M 297.5 302 L 300 302.5 L 297.5 303 L 297.5 302 Z " /><path fill="rgb(58,146,171)" stroke="rgb(58,146,171)" stroke-width="1" opacity="1" d="M 211 332 L 214 332 L 214 338.5 L 213 338.5 L 212.5 333 L 210.5 337 L 210 334.5 L 211 332 Z " /><path fill="rgb(58,146,171)" stroke="rgb(58,146,171)" stroke-width="1" opacity="1" d="M 407.5 332 L 408 334.5 L 407 334.5 L 407.5 332 Z " /><path fill="rgb(58,146,171)" stroke="rgb(58,146,171)" stroke-width="1" opacity="1" d="M 405.5 334 L 406 349.5 L 405 349.5 L 405.5 334 Z " /><path fill="rgb(58,146,171)" stroke="rgb(58,146,171)" stroke-width="1" opacity="1" d="M 212.5 340 L 213 349.5 L 212 350.5 L 212 365.5 L 213 366.5 L 214 417.5 L 216 425.5 L 216 435.5 L 212 448.5 L 212 457.5 L 216.5 463 L 223.5 466 L 233.5 468 L 270.5 468 L 271.5 467 L 286.5 466 L 297.5 456 L 301.5 454 L 311.5 453 L 326 460 L 328 466 L 333.5 467 L 343.5 467 L 344.5 468 L 389.5 468 L 408 463 Q 409.8 460.6 409 454.5 L 404 439.5 L 404 424.5 L 406 413.5 L 406 384.5 L 407 382.5 L 406 377.5 L 408 378.5 L 407 417.5 L 405 426.5 L 405 437.5 L 410 452.5 L 410 461.5 L 409 464 L 401.5 467 L 391.5 469 L 357.5 470 L 356.5 469 L 340.5 469 L 339.5 468 Q 331.3 469.7 327.5 467 L 325 468.5 L 327 464.5 L 323.5 460 Q 318.3 454.7 308.5 454 L 296.5 458 L 289 465.5 L 295.5 473 L 288.5 466 L 287.5 467 L 273.5 468 L 272.5 469 L 260.5 469 L 259.5 470 L 242.5 470 L 241.5 469 L 231.5 469 L 222.5 467 Q 215.5 465.5 212 460.5 L 211 458.5 L 211 447.5 Q 215.2 440.2 215 428.5 L 214 427.5 L 213 406.5 L 212 405.5 L 211 350.5 L 212 349.5 L 212.5 340 Z " /><path fill="rgb(58,146,171)" stroke="rgb(58,146,171)" stroke-width="1" opacity="1" d="M 470.5 350 L 477.5 358 L 470.5 350 Z " /><path fill="rgb(58,146,171)" stroke="rgb(58,146,171)" stroke-width="1" opacity="1" d="M 405.5 364 L 406 368.5 L 405 368.5 L 405.5 364 Z " /><path fill="rgb(58,146,171)" stroke="rgb(58,146,171)" stroke-width="1" opacity="1" d="M 405.5 372 L 406 374.5 L 405 374.5 L 405.5 372 Z " /><path fill="rgb(58,146,171)" stroke="rgb(58,146,171)" stroke-width="1" opacity="1" d="M 269.5 374 L 274 374.5 L 269.5 375 L 269.5 374 Z " /><path fill="rgb(58,146,171)" stroke="rgb(58,146,171)" stroke-width="1" opacity="1" d="M 357.5 374 L 362 374.5 L 357.5 375 L 357.5 374 Z " /><path fill="rgb(58,146,171)" stroke="rgb(58,146,171)" stroke-width="1" opacity="1" d="M 284.5 375 L 287 375.5 L 284.5 376 L 284.5 375 Z " /><path fill="rgb(58,146,171)" stroke="rgb(58,146,171)" stroke-width="1" opacity="1" d="M 322.5 375 L 326 375.5 L 322.5 376 L 322.5 375 Z " /><path fill="rgb(58,146,171)" stroke="rgb(58,146,171)" stroke-width="1" opacity="1" d="M 372.5 375 L 373 377.5 L 372 377.5 L 372.5 375 Z " /><path fill="rgb(58,146,171)" stroke="rgb(58,146,171)" stroke-width="1" opacity="1" d="M 252.5 376 L 258 376.5 L 252.5 377 L 252.5 376 Z " /><path fill="rgb(58,146,171)" stroke="rgb(58,146,171)" stroke-width="1" opacity="1" d="M 298.5 376 L 310 376.5 L 298.5 377 L 298.5 376 Z " /><path fill="rgb(58,146,171)" stroke="rgb(58,146,171)" stroke-width="1" opacity="1" d="M 273.5 377 L 277 377.5 L 273.5 378 L 273.5 377 Z " /><path fill="rgb(58,146,171)" stroke="rgb(58,146,171)" stroke-width="1" opacity="1" d="M 366.5 377 L 369 378.5 L 368.5 382 L 368 378 L 366.5 377 Z " /><path fill="rgb(58,146,171)" stroke="rgb(58,146,171)" stroke-width="1" opacity="1" d="M 285.5 378 L 289 378.5 L 285.5 379 L 285.5 378 Z " /><path fill="rgb(58,146,171)" stroke="rgb(58,146,171)" stroke-width="1" opacity="1" d="M 326.5 378 L 331 378.5 L 326.5 379 L 326.5 378 Z " /><path fill="rgb(58,146,171)" stroke="rgb(58,146,171)" stroke-width="1" opacity="1" d="M 298.5 379 L 313 379.5 L 298.5 380 L 298.5 379 Z " /><path fill="rgb(58,146,171)" stroke="rgb(58,146,171)" stroke-width="1" opacity="1" d="M 247.5 381 L 248 383.5 L 247 383.5 L 247.5 381 Z " /><path fill="rgb(58,146,171)" stroke="rgb(58,146,171)" stroke-width="1" opacity="1" d="M 426.5 386 L 430 390.5 L 427 388.5 L 426.5 386 Z " /><path fill="rgb(58,146,171)" stroke="rgb(58,146,171)" stroke-width="1" opacity="1" d="M 480.5 386 L 481 387.5 L 479 388.5 L 480.5 386 Z " /><path fill="rgb(58,146,171)" stroke="rgb(58,146,171)" stroke-width="1" opacity="1" d="M 477.5 392 L 471.5 399 L 477.5 392 Z " /><path fill="rgb(58,146,171)" stroke="rgb(58,146,171)" stroke-width="1" opacity="1" d="M 261.5 407 L 265.5 412 L 261.5 407 Z " /><path fill="rgb(58,146,171)" stroke="rgb(58,146,171)" stroke-width="1" opacity="1" d="M 360.5 407 L 358.5 410 L 360.5 407 Z " /><path fill="rgb(58,146,171)" stroke="rgb(58,146,171)" stroke-width="1" opacity="1" d="M 258.5 408 L 259.5 410 L 258.5 408 Z " /><path fill="rgb(58,146,171)" stroke="rgb(58,146,171)" stroke-width="1" opacity="1" d="M 355.5 412 L 354.5 414 L 355.5 412 Z " /><path fill="rgb(58,146,171)" stroke="rgb(58,146,171)" stroke-width="1" opacity="1" d="M 264.5 414 L 265.5 416 L 264.5 414 Z " /><path fill="rgb(58,146,171)" stroke="rgb(58,146,171)" stroke-width="1" opacity="1" d="M 269.5 414 L 270.5 416 L 269.5 414 Z " /><path fill="rgb(58,146,171)" stroke="rgb(58,146,171)" stroke-width="1" opacity="1" d="M 307.5 427 L 317 427.5 L 307.5 428 L 307.5 427 Z " /><path fill="rgb(58,146,171)" stroke="rgb(58,146,171)" stroke-width="1" opacity="1" d="M 199.5 465 L 198.5 467 L 199.5 465 Z " /><path fill="rgb(58,146,171)" stroke="rgb(58,146,171)" stroke-width="1" opacity="1" d="M 422.5 467 L 426.5 472 L 422.5 467 Z " /><path fill="rgb(58,146,171)" stroke="rgb(58,146,171)" stroke-width="1" opacity="1" d="M 195.5 468 L 193.5 471 L 195.5 468 Z " /><path fill="rgb(58,146,171)" stroke="rgb(58,146,171)" stroke-width="1" opacity="1" d="M 192.5 472 L 191.5 474 L 192.5 472 Z " /><path fill="rgb(58,146,171)" stroke="rgb(58,146,171)" stroke-width="1" opacity="1" d="M 323.5 472 L 322.5 474 L 323.5 472 Z " /><path fill="rgb(58,146,171)" stroke="rgb(58,146,171)" stroke-width="1" opacity="1" d="M 296.5 474 L 297.5 476 L 296.5 474 Z " /><path fill="rgb(58,146,171)" stroke="rgb(58,146,171)" stroke-width="1" opacity="1" d="M 191.5 488 L 192.5 490 L 191.5 488 Z " /><path fill="rgb(58,146,171)" stroke="rgb(58,146,171)" stroke-width="1" opacity="1" d="M 322.5 490 L 328.5 497 L 322.5 490 Z " /><path fill="rgb(58,146,171)" stroke="rgb(58,146,171)" stroke-width="1" opacity="1" d="M 194.5 491 L 197.5 495 L 194.5 491 Z " /><path fill="rgb(58,146,171)" stroke="rgb(58,146,171)" stroke-width="1" opacity="1" d="M 299.5 491 L 294.5 497 L 299.5 491 Z " /><path fill="rgb(58,146,171)" stroke="rgb(58,146,171)" stroke-width="1" opacity="1" d="M 199.5 495 L 200.5 497 L 199.5 495 Z " /><path fill="rgb(58,146,171)" stroke="rgb(58,146,171)" stroke-width="1" opacity="1" d="M 428.5 496 L 427.5 498 L 428.5 496 Z " /><path fill="rgb(58,146,171)" stroke="rgb(58,146,171)" stroke-width="1" opacity="1" d="M 330.5 497 L 331.5 499 L 330.5 497 Z " /><path fill="rgb(58,146,171)" stroke="rgb(58,146,171)" stroke-width="1" opacity="1" d="M 423.5 501 L 422.5 503 L 423.5 501 Z " /><path fill="rgb(253,253,253)" stroke="rgb(253,253,253)" stroke-width="1" opacity="1" d="M 280.5 72 Q 294.2 72.3 300 80.5 L 308 96.5 L 309 108.5 L 307 117.5 L 302.5 125 Q 294.2 127.2 290.5 134 L 275.5 135 Q 264.6 133.4 260 125.5 L 255 112.5 L 255 92.5 Q 258.1 82.6 265.5 77 L 280.5 72 Z M 293 95 L 287 103 L 287 111 L 290 116 L 294 117 L 299 116 L 302 112 L 301 100 Q 299 95 293 95 Z " /><path fill="rgb(253,253,253)" stroke="rgb(253,253,253)" stroke-width="1" opacity="1" d="M 332.5 72 L 343.5 72 Q 351.3 74.3 356 79.5 L 364 95.5 L 365 107.5 Q 362.5 109 364 114.5 L 361 121.5 L 353.5 130 Q 345.5 136 329.5 134 L 323.5 132 L 317 127 Q 312.8 120.4 311 110.5 L 311 92.5 Q 313.6 83.6 319.5 78 L 332.5 72 Z M 324 96 L 322 97 L 317 105 L 317 111 L 320 117 L 323 118 L 330 117 L 332 114 L 332 103 L 331 101 Q 329 96 324 96 Z " /><path fill="rgb(253,253,253)" stroke="rgb(253,253,253)" stroke-width="1" opacity="1" d="M 295.5 101 Q 297.8 100.3 297 102.5 L 298 107.5 L 295.5 109 Q 292.5 108.5 293 104.5 L 295.5 101 Z " /><path fill="rgb(253,253,253)" stroke="rgb(253,253,253)" stroke-width="1" opacity="1" d="M 321.5 101 L 324 102.5 L 325 105.5 L 321 107 L 320 102.5 L 321.5 101 Z " /><path fill="rgb(253,253,253)" stroke="rgb(253,253,253)" stroke-width="1" opacity="1" d="M 309 115 Q 312 113.8 311 117.5 L 314 125 L 306 124 L 309 115 Z " /><path fill="rgb(253,253,253)" stroke="rgb(253,253,253)" stroke-width="1" opacity="1" d="M 254.5 117 Q 257.2 127.8 265.5 133 L 272.5 136 L 283.5 137 L 289.5 135 L 290 137.5 L 289 138.5 L 289 147.5 Q 291.1 155.4 297.5 159 L 310 162.5 L 309 163.5 L 309 202.5 L 309.5 204 L 276.5 205 L 249.5 210 L 235.5 214 L 216.5 216 L 199.5 213 L 186 207.5 L 178 190.5 L 178 177.5 Q 180.1 170.1 185.5 166 L 191.5 162 L 196.5 162 L 210.5 167 L 212 164.5 L 201.5 159 L 195 159 Q 199.8 140.7 214.5 131 L 231.5 122 L 254.5 117 Z M 213 141 L 211 144 L 217 147 L 229 151 L 259 157 L 268 160 Q 271 161 269 157 L 258 153 L 233 148 L 213 141 Z M 203 174 L 203 177 Q 209 179 221 178 L 222 179 L 274 179 L 275 175 L 215 175 L 214 174 L 203 174 Z M 271 189 L 265 191 L 259 191 L 243 194 L 208 203 Q 203 202 205 206 L 218 205 L 249 197 L 272 194 L 276 192 L 276 189 L 271 189 Z " /><path fill="rgb(253,253,253)" stroke="rgb(253,253,253)" stroke-width="1" opacity="1" d="M 364.5 118 Q 396.1 120.9 411 140.5 L 421 156.5 Q 411.7 156.7 407 161.5 L 408.5 164 Q 414.7 159.2 427.5 161 L 437 168.5 L 441 177.5 L 442 187.5 L 440 195.5 L 432.5 207 Q 431 204.5 429.5 208 L 413.5 215 L 392.5 216 L 344.5 207 L 311 204 L 311 161.5 L 313.5 161 Q 321.4 158.9 325 152.5 Q 328.4 147.4 327 137.5 L 325 134.5 L 326.5 134 Q 331.9 137.6 342.5 136 Q 355.1 133.6 361 124.5 L 364.5 118 Z M 405 141 Q 375 152 341 158 Q 336 160 340 162 L 374 155 L 405 146 L 408 144 Q 409 139 405 141 Z M 402 171 L 401 172 L 369 173 L 368 174 L 351 174 L 350 175 Q 342 174 343 177 L 378 177 L 379 176 L 394 176 L 395 175 L 420 175 L 421 173 L 420 171 L 402 171 Z M 342 192 L 342 195 L 360 198 L 403 201 L 414 203 Q 418 204 418 201 L 416 198 L 378 196 L 377 195 L 368 195 L 351 192 L 342 192 Z " /><path fill="rgb(253,253,253)" stroke="rgb(253,253,253)" stroke-width="1" opacity="1" d="M 303.5 134 Q 308 133 309 135.5 Q 310 140 307.5 141 L 304.5 142 L 302 141 L 301 136.5 L 303.5 134 Z " /><path fill="rgb(253,253,253)" stroke="rgb(253,253,253)" stroke-width="1" opacity="1" d="M 188.5 212 L 204 218.5 Q 217.7 255.3 245.5 278 L 261.5 291 L 273.5 297 L 294.5 303 L 313.5 304 L 314.5 303 L 328.5 302 L 350.5 295 Q 363.8 288.8 373 278.5 L 393 251.5 L 409 222.5 L 410 218 L 418.5 217 L 430 213 L 430 224.5 L 427 239.5 L 417 264.5 Q 404.8 287.3 387.5 305 L 370.5 309 L 352.5 311 L 351.5 312 L 344.5 312 L 343.5 313 L 319.5 314 L 318.5 315 L 292.5 315 L 291.5 314 L 269.5 313 L 244.5 308 Q 227 301 216 287.5 Q 204.7 274.3 197 257.5 L 190 233.5 L 188.5 212 Z " /><path fill="rgb(253,253,253)" stroke="rgb(253,253,253)" stroke-width="1" opacity="1" d="M 143.5 217 L 157.5 217 Q 166 219.5 171 225.5 L 177 239.5 L 177 250.5 Q 174.1 266.1 163.5 274 L 153.5 278 L 143.5 278 L 131.5 274 L 125 268.5 L 119 257.5 L 118 244.5 Q 120.8 231.3 129.5 224 L 143.5 217 Z " /><path fill="rgb(253,253,253)" stroke="rgb(253,253,253)" stroke-width="1" opacity="1" d="M 269.5 329 L 287 331.5 L 284 333.5 Q 283 338.5 286 339.5 L 286 349.5 L 293.5 359 Q 300.8 366.2 316.5 365 Q 324.5 362.5 329 356.5 Q 335.5 348 336 333.5 L 335.5 332 L 354.5 331 L 356.5 330 Q 367.6 334.9 375 343.5 L 384 359.5 L 386 377.5 L 385 378.5 L 385 386.5 L 381 399.5 Q 375.2 413.2 364.5 422 Q 353.2 432.2 336.5 437 L 320.5 440 L 298.5 440 L 297.5 439 L 280.5 437 L 266.5 433 Q 252.2 426.8 243 415.5 L 233 397.5 L 230 384.5 L 230 371.5 Q 233.9 348.9 249.5 338 L 269.5 329 Z M 255 373 Q 253 375 249 374 L 247 376 L 247 386 L 249 394 L 256 407 Q 266 419 282 426 L 295 430 L 309 431 L 310 432 L 325 431 L 334 429 Q 348 425 359 416 Q 366 410 370 400 L 372 392 L 373 375 L 370 373 L 368 373 L 367 374 L 334 374 L 333 375 L 317 375 L 316 376 L 293 376 L 292 375 L 281 375 L 280 374 L 260 374 L 255 373 Z " /><path fill="rgb(253,253,253)" stroke="rgb(253,253,253)" stroke-width="1" opacity="1" d="M 453.5 346 Q 468.3 346.7 475 355.5 L 482 369.5 L 482 380.5 Q 479.1 393.1 469.5 399 L 462.5 402 L 449.5 402 Q 437.1 398.9 430 390.5 Q 425 385.5 425 375.5 Q 427.6 361.6 436.5 354 L 445.5 348 L 453.5 346 Z " /><path fill="rgb(253,253,253)" stroke="rgb(253,253,253)" stroke-width="1" opacity="1" d="M 250 377 L 280.5 378 L 281.5 379 L 291.5 379 L 292.5 380 L 319.5 380 L 320.5 379 L 359.5 379 L 360.5 378 L 368 378 L 367 391.5 L 364 401.5 L 352.5 415 Q 342 423 326.5 426 Q 321.8 424.8 320.5 427 L 303.5 427 L 283.5 422 Q 269.6 416.9 261 406.5 L 254 395.5 L 251 386.5 L 250 377 Z " /><path fill="rgb(253,253,253)" stroke="rgb(253,253,253)" stroke-width="1" opacity="1" d="M 210.5 462 L 220.5 467 L 234.5 470 L 268.5 470 L 269.5 469 L 277.5 469 L 288.5 467 L 298 477.5 Q 301.2 480.8 300 488.5 L 295.5 495 L 290.5 498 L 269.5 504 L 254.5 505 L 253.5 506 L 235.5 506 L 234.5 505 L 220.5 504 L 208.5 500 L 193 489.5 Q 189.2 486.3 190 478.5 Q 192.6 471.1 198.5 467 L 210.5 462 Z " /><path fill="rgb(253,253,253)" stroke="rgb(253,253,253)" stroke-width="1" opacity="1" d="M 406.5 465 Q 422.4 463.6 427 473.5 Q 431.6 479.4 430 491.5 Q 427.8 498.3 422.5 502 L 411.5 506 L 388.5 507 L 387.5 506 L 359.5 506 Q 357.8 503.2 351.5 505 L 337.5 501 L 324 491.5 Q 320 488 321 479.5 L 327.5 468 L 345.5 469 L 346.5 470 L 387.5 470 L 388.5 469 L 399.5 468 L 406.5 465 Z " /><path fill="rgb(18,165,207)" stroke="rgb(18,165,207)" stroke-width="1" opacity="1" d="M 297.5 66 L 321.5 66 L 322.5 67 Q 331.5 66 337 68.5 L 321.5 74 L 313 82.5 L 308.5 92 Q 305.9 82.6 299.5 77 Q 292.7 69.3 278 69.5 L 281.5 68 L 296.5 67 L 297.5 66 Z " /><path fill="rgb(18,165,207)" stroke="rgb(18,165,207)" stroke-width="1" opacity="1" d="M 272.5 70 L 277 70.5 Q 264.2 72.7 258 81.5 L 253 91.5 L 252 104.5 L 254 114.5 L 252.5 116 L 236.5 118 L 223.5 123 Q 210.8 129.8 202 140.5 L 195 151.5 L 193 159 Q 184.6 162.6 179 170.5 L 176 176.5 L 175 185.5 L 179 199.5 L 186 211.5 L 187 230.5 L 194 255.5 L 203 273.5 L 217 292 L 225 298.5 L 222.5 299 L 220 298 Q 217.3 302 217 309.5 L 220.5 315 L 248.5 325 L 259.5 327 L 264 329.5 Q 248.8 333.8 240 344.5 Q 233.5 352 230 362.5 L 228 372.5 L 228 384.5 Q 233.1 412.9 252.5 427 Q 262.2 434.8 276.5 438 L 291.5 441 L 299.5 441 L 300.5 442 L 319.5 442 L 320.5 441 L 332.5 440 L 351.5 433 Q 365.4 425.4 375 413.5 Q 382.4 403.9 386 390.5 L 387 385.5 L 387 364.5 Q 382.7 344.8 368.5 335 L 363 331.5 Q 362.1 328.5 366.5 330 L 409.5 317 L 430.5 337 L 432 336.5 L 431 337.5 L 441 347.5 L 439.5 350 L 431 357.5 L 425 367.5 L 424 374.5 L 422.5 376 L 409 368.5 L 410 366.5 L 410 346.5 L 409 345.5 L 408 332 L 405 332.5 L 405 349.5 L 406 350.5 L 406 363.5 L 405 368.5 L 406 371.5 L 405 374.5 L 407 383.5 L 406 384.5 L 406 413.5 L 404 424.5 L 404 439.5 L 406.5 446 L 408 445.5 L 407 448.5 L 409 454.5 L 409 460.5 L 408 463 L 389.5 468 L 344.5 468 L 343.5 467 L 333.5 467 L 328 466 L 326 460 L 320.5 457 L 319 457.5 L 319.5 456 L 311.5 453 L 306.5 453 L 301.5 454 L 296 457.5 L 296.5 459 L 294.5 459 L 286.5 466 L 279.5 466 L 270.5 468 L 233.5 468 L 220.5 465 L 213 459.5 Q 210.5 456 212 448.5 L 214 440.5 L 213.5 439 L 215 439.5 L 216 425.5 L 214 417.5 L 214 400.5 L 213 399.5 L 212 350.5 L 213 349.5 L 214 332 Q 210.2 330.5 211 333.5 L 208.5 344 L 199.5 334 L 198 334.5 Q 200.5 333 197 331.5 L 159.5 288 L 158 288.5 Q 160.5 287 157 285.5 L 154 281.5 L 154 279 Q 164.4 277.6 170 270.5 L 175 261.5 L 174.5 260 L 176 260.5 L 178 254 L 185.5 258 L 186.5 256 L 187.5 258 L 188 255.5 L 182 244.5 L 174 219.5 L 172 209.5 L 172 201.5 L 171 200.5 L 171 181.5 L 172 180.5 L 172 173.5 L 174 163.5 L 180 144.5 L 192 121.5 L 200 111 Q 202.7 112.1 202 109.5 Q 214.9 95.4 232.5 86 L 248.5 78 L 272.5 70 Z M 191 262 L 190 264 L 192 265 L 191 262 Z M 194 267 L 195 272 L 198 274 L 194 267 Z M 199 274 L 198 276 L 200 277 L 199 274 Z M 201 277 L 200 279 L 204 282 L 201 277 Z M 205 282 L 206 284 Q 207 281 205 282 Z M 208 285 L 207 287 L 220 298 L 208 285 Z " /><path fill="rgb(18,165,207)" stroke="rgb(18,165,207)" stroke-width="1" opacity="1" d="M 348.5 71 Q 391 81.5 417 108.5 Q 433 126 441 151.5 L 447 178.5 L 447 211.5 L 442 235.5 L 431 260.5 Q 418.2 283.2 400.5 301 L 395.5 302 Q 391.7 299.7 397 297.5 L 412 277.5 L 423 256.5 L 430 236.5 L 432 226.5 L 432 211.5 L 442 196.5 L 444 189.5 L 444 181.5 Q 442 168.5 433.5 162 L 426 159 Q 427.1 156.3 424.5 157 L 413 139.5 L 403.5 130 L 392.5 123 L 378.5 118 L 370.5 117 L 366 114.5 L 367 99.5 L 361 82.5 L 351.5 73 Q 347.7 72.8 348.5 71 Z " /><path fill="rgb(18,165,207)" stroke="rgb(18,165,207)" stroke-width="1" opacity="1" d="M 407.5 390 L 408 393.5 L 407 393.5 L 407.5 390 Z " /><path fill="rgb(18,165,207)" stroke="rgb(18,165,207)" stroke-width="1" opacity="1" d="M 214.5 428 L 215 431.5 L 214 431.5 L 214.5 428 Z " /></svg>